<?xml version="1.0" encoding="UTF-8" standalone="no"?>
<!-- Created with Inkscape (http://www.inkscape.org/) -->

<svg
   xmlns:dc="http://purl.org/dc/elements/1.1/"
   xmlns:cc="http://creativecommons.org/ns#"
   xmlns:rdf="http://www.w3.org/1999/02/22-rdf-syntax-ns#"
   xmlns:svg="http://www.w3.org/2000/svg"
   xmlns="http://www.w3.org/2000/svg"
   xmlns:sodipodi="http://sodipodi.sourceforge.net/DTD/sodipodi-0.dtd"
   xmlns:inkscape="http://www.inkscape.org/namespaces/inkscape"
   width="16.001179mm"
   height="16.000126mm"
   viewBox="0 0 56.69709 56.693359"
   id="svg2"
   version="1.1"
   inkscape:version="0.91 r13725"
   sodipodi:docname="rfm69cw.svg">
  <sodipodi:namedview
     id="base"
     pagecolor="#ffffff"
     bordercolor="#666666"
     borderopacity="1.0"
     inkscape:pageopacity="0.0"
     inkscape:pageshadow="2"
     inkscape:zoom="8"
     inkscape:cx="30.210267"
     inkscape:cy="26.299029"
     inkscape:document-units="px"
     inkscape:current-layer="g4901"
     showgrid="false"
     inkscape:window-width="1536"
     inkscape:window-height="801"
     inkscape:window-x="-8"
     inkscape:window-y="-8"
     inkscape:window-maximized="1"
     fit-margin-top="0"
     fit-margin-left="0"
     fit-margin-right="0"
     fit-margin-bottom="0" />
  <defs
     id="defs4" />
  <metadata
     id="metadata7">
    <rdf:RDF>
      <cc:Work
         rdf:about="">
        <dc:format>image/svg+xml</dc:format>
        <dc:type
           rdf:resource="http://purl.org/dc/dcmitype/StillImage" />
        <dc:title />
      </cc:Work>
    </rdf:RDF>
  </metadata>
  <g
     id="layer1"
     inkscape:groupmode="layer"
     inkscape:label="Layer 1"
     transform="translate(-203.88083,-134.69191)">
    <g
       id="g4901">
      <path
         style="fill:#008600;fill-opacity:1;stroke:none;stroke-width:0.50360125;stroke-opacity:1"
         d="m 203.88083,134.69191 0,5.74218 a 1.3443975,1.3443975 0 0 1 0.006,0 1.3443975,1.3443975 0 0 1 1.34571,1.34571 1.3443975,1.3443975 0 0 1 -1.34571,1.34375 1.3443975,1.3443975 0 0 1 -0.006,0 l 0,4.39843 a 1.3443975,1.3443975 0 0 1 0.006,0 1.3443975,1.3443975 0 0 1 1.34571,1.34375 1.3443975,1.3443975 0 0 1 -1.34571,1.34375 1.3443975,1.3443975 0 0 1 -0.006,0 l 0,4.39844 a 1.3443975,1.3443975 0 0 1 0.006,0 1.3443975,1.3443975 0 0 1 1.34571,1.34375 1.3443975,1.3443975 0 0 1 -1.34571,1.3457 1.3443975,1.3443975 0 0 1 -0.006,0 l 0,4.39649 a 1.3443975,1.3443975 0 0 1 0.006,0 1.3443975,1.3443975 0 0 1 1.34571,1.3457 1.3443975,1.3443975 0 0 1 -1.34571,1.34375 1.3443975,1.3443975 0 0 1 -0.006,0 l 0,4.39844 a 1.3443975,1.3443975 0 0 1 0.006,0 1.3443975,1.3443975 0 0 1 1.34571,1.34375 1.3443975,1.3443975 0 0 1 -1.34571,1.34375 1.3443975,1.3443975 0 0 1 -0.006,0 l 0,4.39844 a 1.3443975,1.3443975 0 0 1 0.006,0 1.3443975,1.3443975 0 0 1 1.34571,1.34375 1.3443975,1.3443975 0 0 1 -1.34571,1.3457 1.3443975,1.3443975 0 0 1 -0.006,0 l 0,4.39648 a 1.3443975,1.3443975 0 0 1 0.006,0 1.3443975,1.3443975 0 0 1 1.34571,1.34571 1.3443975,1.3443975 0 0 1 -1.34571,1.34375 1.3443975,1.3443975 0 0 1 -0.006,0 l 0,5.74219 56.69335,0 0,-5.74219 a 1.3443975,1.3443975 0 0 1 -1.34179,-1.34375 1.3443975,1.3443975 0 0 1 1.34179,-1.34571 l 0,-4.39648 a 1.3443975,1.3443975 0 0 1 -1.34179,-1.3457 1.3443975,1.3443975 0 0 1 1.34179,-1.34375 l 0,-4.39844 a 1.3443975,1.3443975 0 0 1 -1.34179,-1.34375 1.3443975,1.3443975 0 0 1 1.34179,-1.34375 l 0,-4.39844 a 1.3443975,1.3443975 0 0 1 -1.34179,-1.34375 1.3443975,1.3443975 0 0 1 1.34179,-1.3457 l 0,-4.39649 a 1.3443975,1.3443975 0 0 1 -1.34179,-1.3457 1.3443975,1.3443975 0 0 1 1.34179,-1.34375 l 0,-4.39844 a 1.3443975,1.3443975 0 0 1 -1.34179,-1.34375 1.3443975,1.3443975 0 0 1 1.34179,-1.34375 l 0,-4.39843 a 1.3443975,1.3443975 0 0 1 -1.34179,-1.34375 1.3443975,1.3443975 0 0 1 1.34179,-1.34571 l 0,-5.74218 -56.69335,0 z m 4.25781,5.74218 a 1.3443975,1.3443975 0 0 1 1.3457,1.34571 1.3443975,1.3443975 0 0 1 -1.3457,1.34375 1.3443975,1.3443975 0 0 1 -1.34375,-1.34375 1.3443975,1.3443975 0 0 1 1.34375,-1.34571 z m 48.18554,0 a 1.3443975,1.3443975 0 0 1 1.34571,1.34571 1.3443975,1.3443975 0 0 1 -1.34571,1.34375 1.3443975,1.3443975 0 0 1 -1.34375,-1.34375 1.3443975,1.3443975 0 0 1 1.34375,-1.34571 z m -48.18554,7.08789 a 1.3443975,1.3443975 0 0 1 1.3457,1.34375 1.3443975,1.3443975 0 0 1 -1.3457,1.34375 1.3443975,1.3443975 0 0 1 -1.34375,-1.34375 1.3443975,1.3443975 0 0 1 1.34375,-1.34375 z m 48.18554,0 a 1.3443975,1.3443975 0 0 1 1.34571,1.34375 1.3443975,1.3443975 0 0 1 -1.34571,1.34375 1.3443975,1.3443975 0 0 1 -1.34375,-1.34375 1.3443975,1.3443975 0 0 1 1.34375,-1.34375 z m -48.18554,7.08594 a 1.3443975,1.3443975 0 0 1 1.3457,1.34375 1.3443975,1.3443975 0 0 1 -1.3457,1.3457 1.3443975,1.3443975 0 0 1 -1.34375,-1.3457 1.3443975,1.3443975 0 0 1 1.34375,-1.34375 z m 48.18554,0 a 1.3443975,1.3443975 0 0 1 1.34571,1.34375 1.3443975,1.3443975 0 0 1 -1.34571,1.3457 1.3443975,1.3443975 0 0 1 -1.34375,-1.3457 1.3443975,1.3443975 0 0 1 1.34375,-1.34375 z m -48.18554,7.08594 a 1.3443975,1.3443975 0 0 1 1.3457,1.3457 1.3443975,1.3443975 0 0 1 -1.3457,1.34375 1.3443975,1.3443975 0 0 1 -1.34375,-1.34375 1.3443975,1.3443975 0 0 1 1.34375,-1.3457 z m 48.18554,0 a 1.3443975,1.3443975 0 0 1 1.34571,1.3457 1.3443975,1.3443975 0 0 1 -1.34571,1.34375 1.3443975,1.3443975 0 0 1 -1.34375,-1.34375 1.3443975,1.3443975 0 0 1 1.34375,-1.3457 z m -48.18554,7.08789 a 1.3443975,1.3443975 0 0 1 1.3457,1.34375 1.3443975,1.3443975 0 0 1 -1.3457,1.34375 1.3443975,1.3443975 0 0 1 -1.34375,-1.34375 1.3443975,1.3443975 0 0 1 1.34375,-1.34375 z m 48.18554,0 a 1.3443975,1.3443975 0 0 1 1.34571,1.34375 1.3443975,1.3443975 0 0 1 -1.34571,1.34375 1.3443975,1.3443975 0 0 1 -1.34375,-1.34375 1.3443975,1.3443975 0 0 1 1.34375,-1.34375 z m -48.18554,7.08594 a 1.3443975,1.3443975 0 0 1 1.3457,1.34375 1.3443975,1.3443975 0 0 1 -1.3457,1.3457 1.3443975,1.3443975 0 0 1 -1.34375,-1.3457 1.3443975,1.3443975 0 0 1 1.34375,-1.34375 z m 48.18554,0 a 1.3443975,1.3443975 0 0 1 1.34571,1.34375 1.3443975,1.3443975 0 0 1 -1.34571,1.3457 1.3443975,1.3443975 0 0 1 -1.34375,-1.3457 1.3443975,1.3443975 0 0 1 1.34375,-1.34375 z m -48.18554,7.08593 a 1.3443975,1.3443975 0 0 1 1.3457,1.34571 1.3443975,1.3443975 0 0 1 -1.3457,1.34375 1.3443975,1.3443975 0 0 1 -1.34375,-1.34375 1.3443975,1.3443975 0 0 1 1.34375,-1.34571 z m 48.18554,0 a 1.3443975,1.3443975 0 0 1 1.34571,1.34571 1.3443975,1.3443975 0 0 1 -1.34571,1.34375 1.3443975,1.3443975 0 0 1 -1.34375,-1.34375 1.3443975,1.3443975 0 0 1 1.34375,-1.34571 z"
         id="rect3347"
         inkscape:connector-curvature="0" />
      <path
         inkscape:connector-curvature="0"
         style="fill:#e1c57a;fill-opacity:1;stroke:none;stroke-width:0.125;stroke-miterlimit:4;stroke-dasharray:none;stroke-opacity:1"
         d="m 256.32597,175.08612 a 2.1259842,2.1259842 0 0 0 -2.125,2.12695 2.1259842,2.1259842 0 0 0 2.125,2.125 l 4.25195,0 0,-0.78125 a 1.3443975,1.3443975 0 0 1 -1.34375,-1.34375 1.3443975,1.3443975 0 0 1 1.34375,-1.3457 l 0,-0.78125 -4.25195,0 z m 0,0.7832 a 1.3443975,1.3443975 0 0 1 1.3457,1.34375 1.3443975,1.3443975 0 0 1 -1.3457,1.34375 1.3443975,1.3443975 0 0 1 -1.34375,-1.34375 1.3443975,1.3443975 0 0 1 1.34375,-1.34375 z"
         id="path4160-5" />
      <path
         inkscape:connector-curvature="0"
         style="fill:#e1c57a;fill-opacity:1;stroke:none;stroke-width:0.125;stroke-miterlimit:4;stroke-dasharray:none;stroke-opacity:1"
         d="m 256.32597,182.17273 a 2.1259842,2.1259842 0 0 0 -2.125,2.12695 2.1259842,2.1259842 0 0 0 2.125,2.125 l 4.25195,0 0,-0.78125 a 1.3443975,1.3443975 0 0 1 -1.34375,-1.34375 1.3443975,1.3443975 0 0 1 1.34375,-1.3457 l 0,-0.78125 -4.25195,0 z m 0,0.7832 a 1.3443975,1.3443975 0 0 1 1.3457,1.34375 1.3443975,1.3443975 0 0 1 -1.3457,1.34375 1.3443975,1.3443975 0 0 1 -1.34375,-1.34375 1.3443975,1.3443975 0 0 1 1.34375,-1.34375 z"
         id="path4160-5-1" />
      <path
         inkscape:connector-curvature="0"
         style="fill:#e1c57a;fill-opacity:1;stroke:none;stroke-width:0.125;stroke-miterlimit:4;stroke-dasharray:none;stroke-opacity:1"
         d="m 256.32597,160.9129 a 2.1259842,2.1259842 0 0 0 -2.125,2.12695 2.1259842,2.1259842 0 0 0 2.125,2.125 l 4.25195,0 0,-0.78125 a 1.3443975,1.3443975 0 0 1 -1.34375,-1.34375 1.3443975,1.3443975 0 0 1 1.34375,-1.3457 l 0,-0.78125 -4.25195,0 z m 0,0.7832 a 1.3443975,1.3443975 0 0 1 1.3457,1.34375 1.3443975,1.3443975 0 0 1 -1.3457,1.34375 1.3443975,1.3443975 0 0 1 -1.34375,-1.34375 1.3443975,1.3443975 0 0 1 1.34375,-1.34375 z"
         id="path4160-5-4" />
      <path
         inkscape:connector-curvature="0"
         style="fill:#e1c57a;fill-opacity:1;stroke:none;stroke-width:0.125;stroke-miterlimit:4;stroke-dasharray:none;stroke-opacity:1"
         d="m 256.32597,167.99951 a 2.1259842,2.1259842 0 0 0 -2.125,2.12695 2.1259842,2.1259842 0 0 0 2.125,2.125 l 4.25195,0 0,-0.78125 a 1.3443975,1.3443975 0 0 1 -1.34375,-1.34375 1.3443975,1.3443975 0 0 1 1.34375,-1.3457 l 0,-0.78125 -4.25195,0 z m 0,0.7832 a 1.3443975,1.3443975 0 0 1 1.3457,1.34375 1.3443975,1.3443975 0 0 1 -1.3457,1.34375 1.3443975,1.3443975 0 0 1 -1.34375,-1.34375 1.3443975,1.3443975 0 0 1 1.34375,-1.34375 z"
         id="path4160-5-1-3" />
      <path
         inkscape:connector-curvature="0"
         style="fill:#e1c57a;fill-opacity:1;stroke:none;stroke-width:0.125;stroke-miterlimit:4;stroke-dasharray:none;stroke-opacity:1"
         d="m 256.32597,153.82628 a 2.1259842,2.1259842 0 0 0 -2.125,2.12695 2.1259842,2.1259842 0 0 0 2.125,2.125 l 4.25195,0 0,-0.78125 a 1.3443975,1.3443975 0 0 1 -1.34375,-1.34375 1.3443975,1.3443975 0 0 1 1.34375,-1.3457 l 0,-0.78125 -4.25195,0 z m 0,0.7832 a 1.3443975,1.3443975 0 0 1 1.3457,1.34375 1.3443975,1.3443975 0 0 1 -1.3457,1.34375 1.3443975,1.3443975 0 0 1 -1.34375,-1.34375 1.3443975,1.3443975 0 0 1 1.34375,-1.34375 z"
         id="path4160-5-7" />
      <path
         inkscape:connector-curvature="0"
         style="fill:#e1c57a;fill-opacity:1;stroke:none;stroke-width:0.125;stroke-miterlimit:4;stroke-dasharray:none;stroke-opacity:1"
         d="m 256.32597,139.65306 a 2.1259842,2.1259842 0 0 0 -2.125,2.12695 2.1259842,2.1259842 0 0 0 2.125,2.125 l 4.25195,0 0,-0.78125 a 1.3443975,1.3443975 0 0 1 -1.34375,-1.34375 1.3443975,1.3443975 0 0 1 1.34375,-1.3457 l 0,-0.78125 -4.25195,0 z m 0,0.7832 a 1.3443975,1.3443975 0 0 1 1.3457,1.34375 1.3443975,1.3443975 0 0 1 -1.3457,1.34375 1.3443975,1.3443975 0 0 1 -1.34375,-1.34375 1.3443975,1.3443975 0 0 1 1.34375,-1.34375 z"
         id="path4160-5-4-0" />
      <path
         inkscape:connector-curvature="0"
         style="fill:#e1c57a;fill-opacity:1;stroke:none;stroke-width:0.125;stroke-miterlimit:4;stroke-dasharray:none;stroke-opacity:1"
         d="m 256.32597,146.73967 a 2.1259842,2.1259842 0 0 0 -2.125,2.12695 2.1259842,2.1259842 0 0 0 2.125,2.125 l 4.25195,0 0,-0.78125 a 1.3443975,1.3443975 0 0 1 -1.34375,-1.34375 1.3443975,1.3443975 0 0 1 1.34375,-1.3457 l 0,-0.78125 -4.25195,0 z m 0,0.7832 a 1.3443975,1.3443975 0 0 1 1.3457,1.34375 1.3443975,1.3443975 0 0 1 -1.3457,1.34375 1.3443975,1.3443975 0 0 1 -1.34375,-1.34375 1.3443975,1.3443975 0 0 1 1.34375,-1.34375 z"
         id="path4160-5-1-3-8" />
      <path
         inkscape:connector-curvature="0"
         style="fill:#e1c57a;fill-opacity:1;stroke:none;stroke-width:0.125;stroke-miterlimit:4;stroke-dasharray:none;stroke-opacity:1"
         d="m 208.13817,175.08611 a 2.1259842,2.1259842 0 0 1 2.125,2.12695 2.1259842,2.1259842 0 0 1 -2.125,2.125 l -4.25195,0 0,-0.78125 a 1.3443975,1.3443975 0 0 0 1.34375,-1.34375 1.3443975,1.3443975 0 0 0 -1.34375,-1.3457 l 0,-0.78125 4.25195,0 z m 0,0.7832 a 1.3443975,1.3443975 0 0 0 -1.3457,1.34375 1.3443975,1.3443975 0 0 0 1.3457,1.34375 1.3443975,1.3443975 0 0 0 1.34375,-1.34375 1.3443975,1.3443975 0 0 0 -1.34375,-1.34375 z"
         id="path4160-5-71" />
      <path
         inkscape:connector-curvature="0"
         style="fill:#e1c57a;fill-opacity:1;stroke:none;stroke-width:0.125;stroke-miterlimit:4;stroke-dasharray:none;stroke-opacity:1"
         d="m 208.13817,182.17273 a 2.1259842,2.1259842 0 0 1 2.125,2.12695 2.1259842,2.1259842 0 0 1 -2.125,2.125 l -4.25195,0 0,-0.78125 a 1.3443975,1.3443975 0 0 0 1.34375,-1.34375 1.3443975,1.3443975 0 0 0 -1.34375,-1.3457 l 0,-0.78125 4.25195,0 z m 0,0.7832 a 1.3443975,1.3443975 0 0 0 -1.3457,1.34375 1.3443975,1.3443975 0 0 0 1.3457,1.34375 1.3443975,1.3443975 0 0 0 1.34375,-1.34375 1.3443975,1.3443975 0 0 0 -1.34375,-1.34375 z"
         id="path4160-5-1-5" />
      <path
         inkscape:connector-curvature="0"
         style="fill:#e1c57a;fill-opacity:1;stroke:none;stroke-width:0.125;stroke-miterlimit:4;stroke-dasharray:none;stroke-opacity:1"
         d="m 208.13817,160.91289 a 2.1259842,2.1259842 0 0 1 2.125,2.12695 2.1259842,2.1259842 0 0 1 -2.125,2.125 l -4.25195,0 0,-0.78125 a 1.3443975,1.3443975 0 0 0 1.34375,-1.34375 1.3443975,1.3443975 0 0 0 -1.34375,-1.3457 l 0,-0.78125 4.25195,0 z m 0,0.7832 a 1.3443975,1.3443975 0 0 0 -1.3457,1.34375 1.3443975,1.3443975 0 0 0 1.3457,1.34375 1.3443975,1.3443975 0 0 0 1.34375,-1.34375 1.3443975,1.3443975 0 0 0 -1.34375,-1.34375 z"
         id="path4160-5-4-8" />
      <path
         inkscape:connector-curvature="0"
         style="fill:#e1c57a;fill-opacity:1;stroke:none;stroke-width:0.125;stroke-miterlimit:4;stroke-dasharray:none;stroke-opacity:1"
         d="m 208.13817,167.9995 a 2.1259842,2.1259842 0 0 1 2.125,2.12695 2.1259842,2.1259842 0 0 1 -2.125,2.125 l -4.25195,0 0,-0.78125 a 1.3443975,1.3443975 0 0 0 1.34375,-1.34375 1.3443975,1.3443975 0 0 0 -1.34375,-1.3457 l 0,-0.78125 4.25195,0 z m 0,0.7832 a 1.3443975,1.3443975 0 0 0 -1.3457,1.34375 1.3443975,1.3443975 0 0 0 1.3457,1.34375 1.3443975,1.3443975 0 0 0 1.34375,-1.34375 1.3443975,1.3443975 0 0 0 -1.34375,-1.34375 z"
         id="path4160-5-1-3-3" />
      <path
         inkscape:connector-curvature="0"
         style="fill:#e1c57a;fill-opacity:1;stroke:none;stroke-width:0.125;stroke-miterlimit:4;stroke-dasharray:none;stroke-opacity:1"
         d="m 208.13817,153.82627 a 2.1259842,2.1259842 0 0 1 2.125,2.12695 2.1259842,2.1259842 0 0 1 -2.125,2.125 l -4.25195,0 0,-0.78125 a 1.3443975,1.3443975 0 0 0 1.34375,-1.34375 1.3443975,1.3443975 0 0 0 -1.34375,-1.3457 l 0,-0.78125 4.25195,0 z m 0,0.7832 a 1.3443975,1.3443975 0 0 0 -1.3457,1.34375 1.3443975,1.3443975 0 0 0 1.3457,1.34375 1.3443975,1.3443975 0 0 0 1.34375,-1.34375 1.3443975,1.3443975 0 0 0 -1.34375,-1.34375 z"
         id="path4160-5-7-4" />
      <path
         inkscape:connector-curvature="0"
         style="fill:#e1c57a;fill-opacity:1;stroke:none;stroke-width:0.125;stroke-miterlimit:4;stroke-dasharray:none;stroke-opacity:1"
         d="m 208.13817,139.65305 a 2.1259842,2.1259842 0 0 1 2.125,2.12695 2.1259842,2.1259842 0 0 1 -2.125,2.125 l -4.25195,0 0,-0.78125 a 1.3443975,1.3443975 0 0 0 1.34375,-1.34375 1.3443975,1.3443975 0 0 0 -1.34375,-1.3457 l 0,-0.78125 4.25195,0 z m 0,0.7832 a 1.3443975,1.3443975 0 0 0 -1.3457,1.34375 1.3443975,1.3443975 0 0 0 1.3457,1.34375 1.3443975,1.3443975 0 0 0 1.34375,-1.34375 1.3443975,1.3443975 0 0 0 -1.34375,-1.34375 z"
         id="path4160-5-4-0-4" />
      <path
         inkscape:connector-curvature="0"
         style="fill:#e1c57a;fill-opacity:1;stroke:none;stroke-width:0.125;stroke-miterlimit:4;stroke-dasharray:none;stroke-opacity:1"
         d="m 208.13817,146.73966 a 2.1259842,2.1259842 0 0 1 2.125,2.12695 2.1259842,2.1259842 0 0 1 -2.125,2.125 l -4.25195,0 0,-0.78125 a 1.3443975,1.3443975 0 0 0 1.34375,-1.34375 1.3443975,1.3443975 0 0 0 -1.34375,-1.3457 l 0,-0.78125 4.25195,0 z m 0,0.7832 a 1.3443975,1.3443975 0 0 0 -1.3457,1.34375 1.3443975,1.3443975 0 0 0 1.3457,1.34375 1.3443975,1.3443975 0 0 0 1.34375,-1.34375 1.3443975,1.3443975 0 0 0 -1.34375,-1.34375 z"
         id="path4160-5-1-3-8-6" />
      <g
         id="g4273">
        <rect
           y="153.68216"
           x="218.93741"
           height="17.716536"
           width="17.716536"
           id="rect4619"
           style="fill:#3c3c3c;fill-opacity:1;stroke:none;stroke-width:0.125;stroke-miterlimit:4;stroke-dasharray:none;stroke-opacity:1" />
        <g
           id="text4678"
           style="font-style:normal;font-weight:normal;font-size:4.53002501px;line-height:125%;font-family:sans-serif;letter-spacing:0px;word-spacing:0px;fill:#ffffff;fill-opacity:1;stroke:none;stroke-width:1px;stroke-linecap:butt;stroke-linejoin:miter;stroke-opacity:1"
           transform="scale(-1.0063937,-0.9936469)">
          <path
             id="path4271"
             style=""
             d="m -224.7326,-166.17654 -0.43796,0 0,-1.6125 -1.64346,0 0,1.6125 -0.43796,0 0,-3.29356 0.43796,0 0,1.29176 1.64346,0 0,-1.29176 0.43796,0 0,3.29356 z" />
        </g>
        <g
           id="text4682"
           style="font-style:normal;font-weight:normal;font-size:4.38206911px;line-height:125%;font-family:sans-serif;letter-spacing:0px;word-spacing:0px;fill:#000000;fill-opacity:1;stroke:none;stroke-width:1px;stroke-linecap:butt;stroke-linejoin:miter;stroke-opacity:1"
           transform="scale(-0.9544399,-1.0477349)">
          <path
             id="path4262"
             style="fill:#ffffff;fill-opacity:1"
             d="m -240.89301,-153.95813 -0.54989,0 -1.06557,-1.26669 -0.59697,0 0,1.26669 -0.42365,0 0,-3.18599 0.89224,0 q 0.28886,0 0.48143,0.0385 0.19257,0.0364 0.34663,0.13266 0.17331,0.10912 0.2696,0.27602 0.0984,0.16475 0.0984,0.41937 0,0.34449 -0.17331,0.57772 -0.17331,0.23108 -0.47715,0.34877 l 1.19822,1.39293 z m -0.99067,-2.28946 q 0,-0.13694 -0.0492,-0.24178 -0.0471,-0.10699 -0.15834,-0.17974 -0.092,-0.062 -0.21825,-0.0856 -0.12624,-0.0257 -0.29741,-0.0257 l -0.49855,0 0,1.2025 0.42794,0 q 0.20113,0 0.35091,-0.0342 0.14977,-0.0364 0.25462,-0.13266 0.0963,-0.0899 0.14122,-0.20541 0.0471,-0.11769 0.0471,-0.29742 z" />
          <path
             id="path4264"
             style="fill:#ffffff;fill-opacity:1"
             d="m -238.44735,-156.76753 -1.61118,0 0,0.89866 1.38437,0 0,0.37659 -1.38437,0 0,1.53415 -0.42366,0 0,-3.18599 2.03484,0 0,0.37659 z" />
          <path
             id="path4266"
             style="fill:#ffffff;fill-opacity:1"
             d="m -235.8455,-154.9916 q 0,0.48571 -0.32095,0.79383 -0.31881,0.30597 -0.78312,0.30597 -0.23537,0 -0.42794,-0.0728 -0.19257,-0.0727 -0.34021,-0.21611 -0.18401,-0.17759 -0.28458,-0.47073 -0.0984,-0.29313 -0.0984,-0.70609 0,-0.42366 0.0899,-0.75103 0.092,-0.32737 0.29099,-0.58199 0.18829,-0.24179 0.48571,-0.37659 0.29742,-0.13694 0.69326,-0.13694 0.12624,0 0.21183,0.0107 0.0856,0.0107 0.17331,0.0385 l 0,0.40868 -0.0214,0 q -0.0599,-0.0321 -0.18187,-0.0599 -0.11982,-0.03 -0.24606,-0.03 -0.46003,0 -0.73391,0.28885 -0.27388,0.28672 -0.31882,0.77671 0.17974,-0.10912 0.35305,-0.16476 0.17545,-0.0578 0.4044,-0.0578 0.20327,0 0.35733,0.0385 0.15619,0.0364 0.31881,0.14977 0.18829,0.13053 0.28244,0.32952 0.0963,0.19899 0.0963,0.48356 z m -0.43435,0.0171 q 0,-0.19899 -0.0599,-0.32951 -0.0578,-0.13052 -0.19257,-0.22681 -0.0984,-0.0685 -0.21825,-0.0899 -0.11982,-0.0214 -0.25034,-0.0214 -0.18188,0 -0.33807,0.0428 -0.1562,0.0428 -0.32096,0.13266 -0.004,0.0471 -0.006,0.092 -0.002,0.0428 -0.002,0.10912 0,0.33807 0.0685,0.53492 0.0706,0.19472 0.19258,0.30812 0.0984,0.0941 0.21182,0.13908 0.11555,0.0428 0.25035,0.0428 0.31025,0 0.48784,-0.18829 0.1776,-0.19043 0.1776,-0.54562 z" />
          <path
             id="path4268"
             style="fill:#ffffff;fill-opacity:1"
             d="m -233.1067,-155.74262 q 0,0.41723 -0.0963,0.75744 -0.0941,0.34021 -0.28672,0.57986 -0.19471,0.24392 -0.48784,0.37658 -0.29314,0.13266 -0.68898,0.13266 -0.11126,0 -0.20969,-0.0128 -0.0984,-0.0107 -0.17545,-0.0364 l 0,-0.40868 0.0214,0 q 0.062,0.0321 0.17546,0.062 0.1134,0.0278 0.25248,0.0278 0.47287,0 0.74033,-0.28244 0.2696,-0.28458 0.31239,-0.78313 -0.19899,0.11983 -0.37444,0.17118 -0.17546,0.0514 -0.383,0.0514 -0.19686,0 -0.35733,-0.0385 -0.15834,-0.0385 -0.31881,-0.14978 -0.1883,-0.13052 -0.28458,-0.33165 -0.0942,-0.20113 -0.0942,-0.48143 0,-0.48785 0.32095,-0.79382 0.32096,-0.30598 0.78313,-0.30598 0.23108,0 0.42793,0.0728 0.19686,0.0706 0.34449,0.21397 0.18188,0.17759 0.2803,0.45789 0.0984,0.27816 0.0984,0.72108 z m -0.43222,-0.092 q 0,-0.33165 -0.0685,-0.53278 -0.0685,-0.20113 -0.18829,-0.3124 -0.10057,-0.0963 -0.21611,-0.13694 -0.11554,-0.0428 -0.25034,-0.0428 -0.30812,0 -0.48785,0.19257 -0.17759,0.19257 -0.17759,0.54134 0,0.20327 0.0578,0.33165 0.0578,0.12838 0.19471,0.22467 0.0963,0.0663 0.21183,0.0899 0.11554,0.0214 0.25676,0.0214 0.1669,0 0.33807,-0.0449 0.17117,-0.0449 0.32095,-0.13052 0.002,-0.0449 0.004,-0.0877 0.004,-0.0449 0.004,-0.1134 z" />
        </g>
        <g
           id="text4686"
           style="font-style:normal;font-weight:normal;font-size:3.11025357px;line-height:125%;font-family:sans-serif;letter-spacing:0px;word-spacing:0px;fill:#ffffff;fill-opacity:1;stroke:none;stroke-width:1px;stroke-linecap:butt;stroke-linejoin:miter;stroke-opacity:1"
           transform="scale(-0.97470362,-1.0259529)">
          <path
             id="path4253"
             style=""
             d="m -235.89971,-154.6192 -1.22406,0 0,-0.23084 0.47079,0 0,-1.51564 -0.47079,0 0,-0.20654 q 0.0957,0 0.20502,-0.0152 0.10935,-0.0167 0.16554,-0.0471 0.0699,-0.038 0.10935,-0.0957 0.041,-0.0592 0.0471,-0.15795 l 0.2354,0 0,2.03807 0.46168,0 0,0.23084 z" />
          <path
             id="path4255"
             style=""
             d="m -233.73863,-155.25553 -0.33563,0 0,0.63633 -0.29159,0 0,-0.63633 -1.08281,0 0,-0.34929 1.09496,-1.27569 0.27944,0 0,1.38199 0.33563,0 0,0.24299 z m -0.62722,-0.24299 0,-1.02055 -0.87627,1.02055 0.87627,0 z" />
          <path
             id="path4257"
             style=""
             d="m -231.81295,-155.75062 q 0,0.60899 -0.19135,0.8945 -0.18984,0.284 -0.59077,0.284 -0.407,0 -0.59532,-0.28855 -0.1868,-0.28855 -0.1868,-0.88691 0,-0.60292 0.18984,-0.88995 0.18983,-0.28854 0.59228,-0.28854 0.40701,0 0.59381,0.2931 0.18831,0.29159 0.18831,0.88235 z m -0.39941,0.68948 q 0.0531,-0.12301 0.0714,-0.28855 0.0197,-0.16705 0.0197,-0.40093 0,-0.23084 -0.0197,-0.40093 -0.0182,-0.17009 -0.0729,-0.28855 -0.0532,-0.11694 -0.14579,-0.17616 -0.0911,-0.0592 -0.2354,-0.0592 -0.14275,0 -0.23691,0.0592 -0.0926,0.0592 -0.14731,0.1792 -0.0516,0.11238 -0.0714,0.29311 -0.0182,0.18072 -0.0182,0.39637 0,0.23691 0.0167,0.39638 0.0167,0.15946 0.0714,0.28551 0.0501,0.11845 0.14124,0.18072 0.0926,0.0623 0.2445,0.0623 0.14276,0 0.23692,-0.0592 0.0941,-0.0592 0.14579,-0.17921 z" />
          <path
             id="path4259"
             style=""
             d="m -230.0285,-155.70809 q 0.0729,0.0653 0.11997,0.16401 0.0471,0.0987 0.0471,0.25514 0,0.15491 -0.0562,0.28399 -0.0562,0.12909 -0.15794,0.22477 -0.1139,0.10631 -0.26881,0.15794 -0.15338,0.0501 -0.33714,0.0501 -0.18832,0 -0.37056,-0.0456 -0.18224,-0.044 -0.29918,-0.0972 l 0,-0.3174 0.0228,0 q 0.12909,0.085 0.30374,0.14123 0.17464,0.0562 0.33714,0.0562 0.0957,0 0.20351,-0.0319 0.10782,-0.0319 0.17464,-0.0942 0.0699,-0.0668 0.10327,-0.14732 0.0349,-0.0805 0.0349,-0.2035 0,-0.12149 -0.0395,-0.20046 -0.038,-0.0805 -0.10631,-0.12605 -0.0683,-0.0471 -0.16554,-0.0638 -0.0972,-0.0182 -0.20957,-0.0182 l -0.13668,0 0,-0.2521 0.1063,0 q 0.23084,0 0.36752,-0.0957 0.1382,-0.0972 0.1382,-0.28248 0,-0.082 -0.0349,-0.14275 -0.0349,-0.0623 -0.0972,-0.10175 -0.0653,-0.0395 -0.13972,-0.0547 -0.0744,-0.0152 -0.16857,-0.0152 -0.14428,0 -0.30678,0.0516 -0.1625,0.0516 -0.30677,0.1458 l -0.0152,0 0,-0.31741 q 0.10783,-0.0531 0.28703,-0.0972 0.18073,-0.0456 0.3493,-0.0456 0.16554,0 0.29159,0.0304 0.12605,0.0304 0.2278,0.0972 0.10934,0.0729 0.16553,0.17616 0.0562,0.10327 0.0562,0.24147 0,0.18832 -0.13364,0.32956 -0.13212,0.13971 -0.31285,0.17616 l 0,0.0213 q 0.0729,0.0122 0.16706,0.0516 0.0942,0.038 0.15946,0.0957 z" />
        </g>
        <g
           id="text4690"
           style="font-style:normal;font-weight:normal;font-size:3.01353288px;line-height:125%;font-family:sans-serif;letter-spacing:0px;word-spacing:0px;fill:#ffffff;fill-opacity:1;stroke:none;stroke-width:1px;stroke-linecap:butt;stroke-linejoin:miter;stroke-opacity:1"
           transform="scale(-0.9597806,-1.0419048)">
          <path
             id="path4240"
             style=""
             d="m -240.51478,-151.64007 -0.56946,2.19099 -0.32813,0 -0.46056,-1.81872 -0.45027,1.81872 -0.32077,0 -0.57976,-2.19099 0.29871,0 0.46056,1.82165 0.45321,-1.82165 0.29576,0 0.45762,1.83931 0.45762,-1.83931 0.28547,0 z" />
          <path
             id="path4242"
             style=""
             d="m -238.78583,-149.44908 -1.18599,0 0,-0.22366 0.45615,0 0,-1.46851 -0.45615,0 0,-0.20012 q 0.0927,0 0.19865,-0.0147 0.10594,-0.0162 0.16039,-0.0456 0.0677,-0.0368 0.10594,-0.0927 0.0397,-0.0574 0.0456,-0.15303 l 0.22808,0 0,1.97469 0.44732,0 0,0.22366 z" />
          <path
             id="path4244"
             style=""
             d="m -236.60514,-151.3811 -0.78281,0 0,1.93202 -0.29135,0 0,-1.93202 -0.78281,0 0,-0.25897 1.85697,0 0,0.25897 z" />
          <path
             id="path4246"
             style=""
             d="m -234.88501,-150.67627 q 0,0.28693 -0.0662,0.52089 -0.0647,0.23396 -0.19717,0.39877 -0.1339,0.16774 -0.33549,0.25897 -0.20159,0.0912 -0.47381,0.0912 -0.0765,0 -0.1442,-0.009 -0.0677,-0.007 -0.12066,-0.025 l 0,-0.28105 0.0147,0 q 0.0427,0.0221 0.12066,0.0427 0.078,0.0191 0.17363,0.0191 0.3252,0 0.50913,-0.19423 0.1854,-0.1957 0.21483,-0.53855 -0.13685,0.0824 -0.25751,0.11771 -0.12065,0.0353 -0.26339,0.0353 -0.13537,0 -0.24573,-0.0265 -0.10888,-0.0265 -0.21924,-0.103 -0.12949,-0.0898 -0.19571,-0.22807 -0.0647,-0.13832 -0.0647,-0.33108 0,-0.33549 0.22072,-0.54591 0.22071,-0.21042 0.53855,-0.21042 0.15892,0 0.29429,0.05 0.13537,0.0486 0.2369,0.14715 0.12508,0.12213 0.19276,0.31489 0.0677,0.19129 0.0677,0.49588 z m -0.29723,-0.0633 q 0,-0.22808 -0.0471,-0.3664 -0.0471,-0.13831 -0.12949,-0.21483 -0.0692,-0.0662 -0.14861,-0.0942 -0.0795,-0.0294 -0.17216,-0.0294 -0.21189,0 -0.3355,0.13243 -0.12213,0.13243 -0.12213,0.37228 0,0.13979 0.0397,0.22807 0.0397,0.0883 0.13391,0.15451 0.0662,0.0456 0.14567,0.0618 0.0795,0.0147 0.17657,0.0147 0.11478,0 0.23249,-0.0309 0.11772,-0.0309 0.22072,-0.0898 0.001,-0.0309 0.003,-0.0603 0.003,-0.0309 0.003,-0.078 z" />
          <path
             id="path4248"
             style=""
             d="m -233.15606,-150.50411 q 0.0706,0.0633 0.11625,0.15891 0.0456,0.0957 0.0456,0.24721 0,0.15009 -0.0544,0.27516 -0.0544,0.12507 -0.15303,0.21777 -0.11036,0.10301 -0.26045,0.15304 -0.14861,0.0486 -0.32666,0.0486 -0.18246,0 -0.35903,-0.0441 -0.17658,-0.0427 -0.28988,-0.0942 l 0,-0.30754 0.0221,0 q 0.12508,0.0824 0.29429,0.13685 0.16922,0.0544 0.32666,0.0544 0.0927,0 0.19718,-0.0309 0.10447,-0.0309 0.16922,-0.0912 0.0677,-0.0647 0.10005,-0.14273 0.0339,-0.078 0.0339,-0.19717 0,-0.11772 -0.0383,-0.19423 -0.0368,-0.078 -0.103,-0.12214 -0.0662,-0.0456 -0.16039,-0.0618 -0.0942,-0.0177 -0.20306,-0.0177 l -0.13243,0 0,-0.24426 0.103,0 q 0.22366,0 0.35609,-0.0927 0.1339,-0.0942 0.1339,-0.27369 0,-0.0795 -0.0338,-0.13831 -0.0338,-0.0603 -0.0942,-0.0986 -0.0633,-0.0383 -0.13538,-0.053 -0.0721,-0.0147 -0.16333,-0.0147 -0.13978,0 -0.29723,0.05 -0.15744,0.05 -0.29723,0.14126 l -0.0147,0 0,-0.30753 q 0.10448,-0.0515 0.27811,-0.0942 0.1751,-0.0442 0.33843,-0.0442 0.16039,0 0.28252,0.0294 0.12213,0.0294 0.22072,0.0942 0.10594,0.0706 0.16039,0.17069 0.0544,0.10006 0.0544,0.23396 0,0.18246 -0.12949,0.31931 -0.12801,0.13537 -0.30312,0.17069 l 0,0.0206 q 0.0706,0.0118 0.16186,0.05 0.0912,0.0368 0.1545,0.0927 z" />
          <path
             id="path4250"
             style=""
             d="m -231.02834,-150.05973 q 0,0.28399 -0.22218,0.47233 -0.22072,0.18835 -0.55621,0.18835 -0.35609,0 -0.56798,-0.18393 -0.21042,-0.18393 -0.21042,-0.47087 0,-0.18246 0.10594,-0.3296 0.10595,-0.14862 0.29871,-0.23544 l 0,-0.009 q -0.17658,-0.0942 -0.26192,-0.20601 -0.0839,-0.11183 -0.0839,-0.27957 0,-0.24721 0.20306,-0.41201 0.20306,-0.1648 0.51648,-0.1648 0.32813,0 0.52383,0.15744 0.19571,0.15745 0.19571,0.40024 0,0.14861 -0.0927,0.29282 -0.0927,0.14273 -0.27221,0.22366 l 0,0.009 q 0.206,0.0883 0.31489,0.21777 0.10888,0.12949 0.10888,0.32961 z m -0.34873,-1.06975 q 0,-0.15744 -0.12213,-0.25015 -0.12066,-0.0942 -0.309,-0.0942 -0.18541,0 -0.3046,0.0883 -0.11771,0.0883 -0.11771,0.23837 0,0.10595 0.0589,0.18393 0.0603,0.0765 0.18099,0.13685 0.0544,0.0265 0.15597,0.0692 0.103,0.0427 0.20012,0.0706 0.14567,-0.0971 0.20159,-0.20159 0.0559,-0.10447 0.0559,-0.24132 z m 0.0456,1.0977 q 0,-0.13537 -0.0603,-0.2163 -0.0589,-0.0824 -0.23249,-0.1648 -0.0692,-0.0324 -0.15156,-0.0603 -0.0824,-0.028 -0.21925,-0.078 -0.13243,0.0721 -0.21336,0.1957 -0.0795,0.12361 -0.0795,0.27958 0,0.19865 0.13685,0.32813 0.13684,0.12949 0.34726,0.12949 0.21483,0 0.34285,-0.11036 0.12949,-0.11036 0.12949,-0.30312 z" />
        </g>
      </g>
      <rect
         y="153.98225"
         x="243.0625"
         height="10.629921"
         width="8.8582678"
         id="rect4705"
         style="fill:#b5b5b5;fill-opacity:1;stroke:none;stroke-width:0.125;stroke-miterlimit:4;stroke-dasharray:none;stroke-opacity:1" />
      <path
         id="path4708"
         d="m 247.0715,175.19571 -2.268,0 c -0.156,0 -0.283,-0.127 -0.283,-0.283 l 0,-0.85 c 0,-0.157 0.127,-0.284 0.283,-0.284 l 2.268,0 c 0.157,0 0.283,0.127 0.283,0.283 l 0,0.85 c 0.001,0.157 -0.126,0.284 -0.283,0.284 z"
         inkscape:connector-curvature="0"
         style="fill:#dcdcdc" />
      <rect
         id="rect4710"
         height="1.4170001"
         width="1.4170001"
         x="245.22951"
         y="173.77872"
         style="fill:#6e554b" />
      <path
         id="path4708-2"
         d="m 247.0715,172.25821 -2.268,0 c -0.156,0 -0.283,-0.127 -0.283,-0.283 l 0,-0.85 c 0,-0.157 0.127,-0.284 0.283,-0.284 l 2.268,0 c 0.157,0 0.283,0.127 0.283,0.283 l 0,0.85 c 0.001,0.157 -0.126,0.284 -0.283,0.284 z"
         inkscape:connector-curvature="0"
         style="fill:#dcdcdc" />
      <rect
         id="rect4710-9"
         height="1.4170001"
         width="1.4170001"
         x="245.22951"
         y="170.84122"
         style="fill:#6e554b" />
      <path
         id="path4708-6"
         d="m 239.5415,180.37121 0,-2.268 c 0,-0.156 0.127,-0.283 0.283,-0.283 l 0.85,0 c 0.157,0 0.284,0.127 0.284,0.283 l 0,2.268 c 0,0.157 -0.127,0.283 -0.283,0.283 l -0.85,0 c -0.157,0.001 -0.284,-0.126 -0.284,-0.283 z"
         inkscape:connector-curvature="0"
         style="fill:#dcdcdc" />
      <rect
         id="rect4710-1"
         height="1.4170001"
         width="1.4170001"
         x="178.52921"
         y="-240.9585"
         style="fill:#6e554b"
         transform="matrix(0,1,-1,0,0,0)" />
      <path
         id="path4708-5"
         d="m 233.0415,178.93371 0,-2.268 c 0,-0.156 0.127,-0.283 0.283,-0.283 l 0.85,0 c 0.157,0 0.284,0.127 0.284,0.283 l 0,2.268 c 0,0.157 -0.127,0.283 -0.283,0.283 l -0.85,0 c -0.157,0.001 -0.284,-0.126 -0.284,-0.283 z"
         inkscape:connector-curvature="0"
         style="fill:#dcdcdc" />
      <rect
         id="rect4710-8"
         height="1.4170001"
         width="1.4170001"
         x="177.09171"
         y="-234.4585"
         style="fill:#6e554b"
         transform="matrix(0,1,-1,0,0,0)" />
      <path
         id="path4764"
         d="m 247.1965,168.88321 -2.268,0 c -0.156,0 -0.283,-0.127 -0.283,-0.283 l 0,-0.85 c 0,-0.157 0.127,-0.284 0.283,-0.284 l 2.268,0 c 0.157,0 0.283,0.127 0.283,0.283 l 0,0.85 c 0.001,0.157 -0.126,0.284 -0.283,0.284 z"
         inkscape:connector-curvature="0"
         style="fill:#dcdcdc" />
      <rect
         id="rect4766"
         height="1.4170001"
         width="1.4170001"
         x="245.35451"
         y="167.46622"
         style="fill:#333333" />
      <path
         id="path4764-4"
         d="m 247.9465,151.75821 -2.268,0 c -0.156,0 -0.283,-0.127 -0.283,-0.283 l 0,-0.85 c 0,-0.157 0.127,-0.284 0.283,-0.284 l 2.268,0 c 0.157,0 0.283,0.127 0.283,0.283 l 0,0.85 c 0.001,0.157 -0.126,0.284 -0.283,0.284 z"
         inkscape:connector-curvature="0"
         style="fill:#dcdcdc" />
      <rect
         id="rect4766-6"
         height="1.4170001"
         width="1.4170001"
         x="246.10451"
         y="150.34122"
         style="fill:#333333" />
      <path
         id="path4764-4-2"
         d="m 223.66648,179.05869 0,-2.268 c 0,-0.156 0.127,-0.283 0.283,-0.283 l 0.85,0 c 0.157,0 0.284,0.127 0.284,0.283 l 0,2.268 c 0,0.157 -0.127,0.283 -0.283,0.283 l -0.85,0 c -0.157,0.001 -0.284,-0.126 -0.284,-0.283 z"
         inkscape:connector-curvature="0"
         style="fill:#dcdcdc" />
      <rect
         id="rect4766-6-2"
         height="1.4170001"
         width="1.4170001"
         x="177.21669"
         y="-225.08348"
         style="fill:#333333"
         transform="matrix(0,1,-1,0,0,0)" />
      <path
         id="path4764-4-2-3"
         d="m 226.7915,179.2462 0,-2.268 c 0,-0.156 0.127,-0.283 0.283,-0.283 l 0.85,0 c 0.157,0 0.284,0.127 0.284,0.283 l 0,2.268 c 0,0.157 -0.127,0.283 -0.283,0.283 l -0.85,0 c -0.157,0.001 -0.284,-0.126 -0.284,-0.283 z"
         inkscape:connector-curvature="0"
         style="fill:#dcdcdc" />
      <rect
         id="rect4766-6-2-1"
         height="1.4170001"
         width="1.4170001"
         x="177.40421"
         y="-228.2085"
         style="fill:#333333"
         transform="matrix(0,1,-1,0,0,0)" />
      <path
         id="path4764-4-2-1"
         d="m 230.0415,179.2462 0,-2.268 c 0,-0.156 0.127,-0.283 0.283,-0.283 l 0.85,0 c 0.157,0 0.284,0.127 0.284,0.283 l 0,2.268 c 0,0.157 -0.127,0.283 -0.283,0.283 l -0.85,0 c -0.157,0.001 -0.284,-0.126 -0.284,-0.283 z"
         inkscape:connector-curvature="0"
         style="fill:#dcdcdc" />
      <rect
         id="rect4766-6-2-4"
         height="1.4170001"
         width="1.4170001"
         x="177.40421"
         y="-231.4585"
         style="fill:#333333"
         transform="matrix(0,1,-1,0,0,0)" />
      <path
         id="path4764-4-2-4"
         d="m 242.1665,180.3712 0,-2.268 c 0,-0.156 0.127,-0.283 0.283,-0.283 l 0.85,0 c 0.157,0 0.284,0.127 0.284,0.283 l 0,2.268 c 0,0.157 -0.127,0.283 -0.283,0.283 l -0.85,0 c -0.157,0.001 -0.284,-0.126 -0.284,-0.283 z"
         inkscape:connector-curvature="0"
         style="fill:#dcdcdc" />
      <rect
         id="rect4766-6-2-3"
         height="1.4170001"
         width="1.4170001"
         x="178.52921"
         y="-243.5835"
         style="fill:#333333"
         transform="matrix(0,1,-1,0,0,0)" />
      <path
         id="path4764-4-2-9"
         d="m 245.354,184.6212 0,-2.268 c 0,-0.156 0.127,-0.283 0.283,-0.283 l 0.85,0 c 0.157,0 0.284,0.127 0.284,0.283 l 0,2.268 c 0,0.157 -0.127,0.283 -0.283,0.283 l -0.85,0 c -0.157,0.001 -0.284,-0.126 -0.284,-0.283 z"
         inkscape:connector-curvature="0"
         style="fill:#dcdcdc" />
      <rect
         id="rect4766-6-2-0"
         height="1.4170001"
         width="1.4170001"
         x="182.77921"
         y="-246.771"
         style="fill:#333333"
         transform="matrix(0,1,-1,0,0,0)" />
      <path
         id="path4764-4-2-0"
         d="m 236.229,184.6837 0,-2.268 c 0,-0.156 0.127,-0.283 0.283,-0.283 l 0.85,0 c 0.157,0 0.284,0.127 0.284,0.283 l 0,2.268 c 0,0.157 -0.127,0.283 -0.283,0.283 l -0.85,0 c -0.157,0.001 -0.284,-0.126 -0.284,-0.283 z"
         inkscape:connector-curvature="0"
         style="fill:#dcdcdc" />
      <rect
         id="rect4766-6-2-46"
         height="1.4170001"
         width="1.4170001"
         x="182.84171"
         y="-237.646"
         style="fill:#333333"
         transform="matrix(0,1,-1,0,0,0)" />
      <path
         id="path4764-4-2-5"
         d="m 236.229,184.6837 0,-2.268 c 0,-0.156 0.127,-0.283 0.283,-0.283 l 0.85,0 c 0.157,0 0.284,0.127 0.284,0.283 l 0,2.268 c 0,0.157 -0.127,0.283 -0.283,0.283 l -0.85,0 c -0.157,0.001 -0.284,-0.126 -0.284,-0.283 z"
         inkscape:connector-curvature="0"
         style="fill:#dcdcdc" />
      <rect
         id="rect4766-6-2-38"
         height="1.4170001"
         width="1.4170001"
         x="182.84171"
         y="-237.646"
         style="fill:#333333"
         transform="matrix(0,1,-1,0,0,0)" />
      <path
         id="path4764-4-2-48"
         d="m 226.979,185.0587 0,-2.268 c 0,-0.156 0.127,-0.283 0.283,-0.283 l 0.85,0 c 0.157,0 0.284,0.127 0.284,0.283 l 0,2.268 c 0,0.157 -0.127,0.283 -0.283,0.283 l -0.85,0 c -0.157,0.001 -0.284,-0.126 -0.284,-0.283 z"
         inkscape:connector-curvature="0"
         style="fill:#dcdcdc" />
      <rect
         id="rect4766-6-2-02"
         height="1.4170001"
         width="1.4170001"
         x="183.21671"
         y="-228.396"
         style="fill:#333333"
         transform="matrix(0,1,-1,0,0,0)" />
      <g
         id="g4317"
         transform="matrix(0,1,-1,0,252.15233,172.05127)">
        <path
           id="path4307"
           d="m 5.386,3.543 -5.103,0 C 0.127,3.543 0,3.416 0,3.26 L 0,0.283 C 0,0.127 0.127,0 0.283,0 l 5.102,0 c 0.157,0 0.283,0.127 0.283,0.283 l 0,2.977 C 5.669,3.416 5.542,3.543 5.386,3.543 Z"
           inkscape:connector-curvature="0"
           style="fill:#dcdcdc" />
        <rect
           id="rect4309"
           height="3.543"
           width="3.543"
           x="1.063"
           y="0"
           style="fill:#6e554b" />
      </g>
    </g>
  </g>
</svg>
