<?xml version="1.0" encoding="UTF-8" standalone="no"?>
<!-- Generator: Adobe Illustrator 15.1.0, SVG Export Plug-In . SVG Version: 6.00 Build 0)  -->

<svg
   xmlns:dc="http://purl.org/dc/elements/1.1/"
   xmlns:cc="http://creativecommons.org/ns#"
   xmlns:rdf="http://www.w3.org/1999/02/22-rdf-syntax-ns#"
   xmlns:svg="http://www.w3.org/2000/svg"
   xmlns="http://www.w3.org/2000/svg"
   xmlns:sodipodi="http://sodipodi.sourceforge.net/DTD/sodipodi-0.dtd"
   xmlns:inkscape="http://www.inkscape.org/namespaces/inkscape"
   version="1.1"
   id="Ebene_1"
   x="0px"
   y="0px"
   width="46.169px"
   height="56.831px"
   viewBox="0 0 46.169 56.831"
   enable-background="new 0 0 46.169 56.831"
   xml:space="preserve"
   inkscape:version="0.91 r13725"
   sodipodi:docname="rj45-8.svg"><metadata
     id="metadata283"><rdf:RDF><cc:Work
         rdf:about=""><dc:format>image/svg+xml</dc:format><dc:type
           rdf:resource="http://purl.org/dc/dcmitype/StillImage" /><dc:title /></cc:Work></rdf:RDF></metadata><defs
     id="defs281" /><sodipodi:namedview
     pagecolor="#ffffff"
     bordercolor="#666666"
     borderopacity="1"
     objecttolerance="10"
     gridtolerance="10"
     guidetolerance="10"
     inkscape:pageopacity="0"
     inkscape:pageshadow="2"
     inkscape:window-width="1475"
     inkscape:window-height="864"
     id="namedview279"
     showgrid="false"
     inkscape:zoom="8.3053261"
     inkscape:cx="7.9918496"
     inkscape:cy="32.994638"
     inkscape:window-x="0"
     inkscape:window-y="0"
     inkscape:window-maximized="0"
     inkscape:current-layer="g3" /><g
     id="g3"
     transform="matrix(-1,0,0,-1,46.168,56.837)"><g
       id="g4253"
       transform="matrix(-1,0,0,-1,46.168,56.837)"><rect
         style="fill:#1a1a1a"
         id="rect5"
         height="32.671001"
         width="43.775002"
         y="6.5"
         x="1.196" /><g
         id="g7"><g
           id="g9"
           enable-background="new    "><g
             id="g11"><polyline
               style="fill:#b3b3b3"
               id="polyline13"
               points="2.353,56.153 2.353,53.26 12.046,53.26 12.046,56.153 2.353,56.153     " /><polyline
               style="fill:#b3b3b3"
               id="polyline15"
               points="2.353,53.26 2.353,39.287 43.816,39.287 43.816,44.912 43.816,45.254 43.825,45.254       43.825,47.445 43.816,47.445 43.816,47.792 43.816,53.26 34.123,53.26 43.816,53.26 43.816,56.153 34.123,56.153 28.462,56.153       28.462,56.504 17.707,56.504 17.707,56.153 12.046,56.153 12.046,53.26 2.353,53.26     " /><polyline
               style="fill:#b3b3b3"
               id="polyline17"
               points="44.968,38.751 1.192,38.751 1.192,56.837 44.968,56.837 44.968,56.832 1.192,56.832       1.192,56.607 44.968,56.607 44.527,56.607 44.527,50.803 44.968,50.803 44.968,38.751     " /><polyline
               style="fill:#1a1a1a"
               id="polyline19"
               points="3.235,55.788 3.235,53.619 11.155,53.619 11.155,55.788 3.235,55.788     " /><polyline
               style="fill:#1a1a1a"
               id="polyline21"
               points="12.046,53.26 2.353,53.26 2.353,56.153 12.046,56.153 12.046,53.26     " /><polyline
               style="fill:#1a1a1a"
               id="polyline23"
               points="35.013,55.788 35.013,53.619 42.933,53.619 42.933,55.788 35.013,55.788     " /><polyline
               style="fill:#1a1a1a"
               id="polyline25"
               points="43.816,53.26 34.123,53.26 34.123,56.153 43.816,56.153 43.816,53.26     " /><polyline
               style="fill:#333333"
               id="polyline39"
               points="42.88,47.445 42.88,52.904 33.429,52.904 33.429,53.619 33.403,53.619 33.403,54.24       28.462,54.24 28.462,55.901 28.462,56.153 34.123,56.153 34.123,53.26 43.816,53.26 43.816,47.792 42.88,47.792 42.88,47.445           " /><polyline
               style="fill:#333333"
               id="polyline41"
               points="43.816,39.287 2.353,39.287 2.353,53.26 12.046,53.26 12.046,56.153 17.707,56.153       17.707,54.24 12.766,54.24 12.766,53.619 12.739,53.619 12.739,52.904 3.298,52.904 3.298,47.792 2.353,47.792 2.353,44.912       3.298,44.912 3.298,39.795 9.499,39.795 10.75,39.795 11.136,39.795 11.38,39.795 11.569,39.795 11.947,39.795 12.145,39.795       12.387,39.795 12.739,39.795 13.99,39.795 14.377,39.795 14.62,39.795 14.809,39.795 15.187,39.795 15.385,39.795       15.628,39.795 15.979,39.795 17.23,39.795 17.617,39.795 17.86,39.795 18.058,39.795 18.427,39.795 18.616,39.795       18.868,39.795 19.219,39.795 20.469,39.795 20.857,39.795 21.1,39.795 21.298,39.795 21.667,39.795 21.856,39.795       22.108,39.795 22.459,39.795 23.71,39.795 24.096,39.795 24.348,39.795 24.538,39.795 24.907,39.795 25.104,39.795       25.347,39.795 25.699,39.795 26.95,39.795 27.337,39.795 27.589,39.795 27.778,39.795 28.146,39.795 28.344,39.795       28.588,39.795 28.938,39.795 30.19,39.795 30.577,39.795 30.82,39.795 31.017,39.795 31.395,39.795 31.585,39.795       31.828,39.795 32.178,39.795 33.429,39.795 33.817,39.795 34.059,39.795 34.258,39.795 34.635,39.795 34.825,39.795       35.068,39.795 35.419,39.795 36.67,39.795 42.88,39.795 42.88,45.254 42.88,44.912 43.816,44.912 43.816,39.287     " /><polyline
               id="polyline43"
               points="12.766,54.236 12.766,53.619 33.393,53.619 33.393,54.236 12.766,54.236     " /><polyline
               id="polyline45"
               points="9.499,52.904 9.499,48.984 10.75,48.984 10.75,52.904 9.499,52.904     " /><polyline
               id="polyline47"
               points="15.979,53.619 15.979,48.984 17.23,48.984 17.23,53.619 15.979,53.619     " /><polyline
               id="polyline49"
               points="19.219,53.619 19.219,48.984 20.469,48.984 20.469,53.619 19.219,53.619     " /><polyline
               id="polyline51"
               points="22.459,53.619 22.459,48.984 23.71,48.984 23.71,53.619 22.459,53.619     " /><polyline
               id="polyline53"
               points="25.699,53.619 25.699,48.984 26.95,48.984 26.95,53.619 25.699,53.619     " /><polyline
               id="polyline55"
               points="28.938,53.619 28.938,48.984 30.19,48.984 30.19,53.619 28.938,53.619     " /><polyline
               id="polyline57"
               points="35.419,52.904 35.419,48.984 36.67,48.984 36.67,52.904 35.419,52.904     " /><g
               id="g4270"><polyline
                 points="42.88,39.795 36.67,39.795 36.67,48.646 35.419,48.646 35.419,39.795 35.068,39.795 35.068,47.257       33.817,47.257 33.817,39.795 33.429,39.795 33.429,48.646 32.178,48.646 32.178,39.795 31.828,39.795 31.828,47.257       30.577,47.257 30.577,39.795 30.19,39.795 30.19,48.646 28.938,48.646 28.938,39.795 28.588,39.795 28.588,47.257       27.337,47.257 27.337,39.795 26.95,39.795 26.95,48.646 25.699,48.646 25.699,39.795 25.347,39.795 25.347,47.257       24.096,47.257 24.096,39.795 23.71,39.795 23.71,48.646 22.459,48.646 22.459,39.795 22.108,39.795 22.108,47.257       20.857,47.257 20.857,39.795 20.469,39.795 20.469,48.646 19.219,48.646 19.219,39.795 18.868,39.795 18.868,47.257       17.617,47.257 17.617,39.795 17.23,39.795 17.23,48.646 15.979,48.646 15.979,39.795 15.628,39.795 15.628,47.257       14.377,47.257 14.377,39.795 13.99,39.795 13.99,48.646 12.739,48.646 12.739,39.795 12.387,39.795 12.387,47.257       11.136,47.257 11.136,39.795 10.75,39.795 10.75,48.646 9.499,48.646 9.499,39.795 3.298,39.795 3.298,44.912 3.298,45.254       3.478,45.254 3.72,45.254 3.847,45.254 3.991,45.254 4.234,45.254 4.234,47.445 3.298,47.445 3.298,47.792 3.298,52.904       12.739,52.904 12.739,48.984 13.99,48.984 13.99,53.619 12.766,53.619 12.766,54.24 17.707,54.24 17.707,56.153 17.707,55.901       28.462,55.901 28.462,54.24 33.403,54.24 33.403,53.619 32.178,53.619 32.178,48.984 33.429,48.984 33.429,52.904 42.88,52.904       42.88,47.445 41.934,47.445 41.934,45.254 42.177,45.254 42.322,45.254 42.457,45.254 42.691,45.254 42.88,45.254 42.88,39.795           "
                 id="polyline59" /></g><polyline
               style="fill:#1a1a1a"
               id="polyline61"
               points="33.393,53.619 12.766,53.619 12.766,54.236 33.393,54.236 33.393,53.619     " /><polyline
               style="fill:#1a1a1a"
               id="polyline63"
               points="28.462,55.901 17.707,55.901 17.707,56.153 17.707,56.504 28.462,56.504 28.462,56.153       28.462,55.901     " /><polyline
               id="polyline65"
               points="43.816,47.445 42.88,47.445 42.88,47.792 43.816,47.792 43.816,47.445     " /><polyline
               id="polyline67"
               points="43.816,44.912 42.88,44.912 42.88,45.254 42.943,45.254 43.816,45.254 43.816,44.912     " /><polyline
               id="polyline69"
               points="3.298,44.912 2.353,44.912 2.353,47.792 3.298,47.792 3.298,47.445 2.353,47.445 2.353,45.254 3.226,45.254       3.298,45.254 3.298,44.912     " /><polyline
               style="fill:#cccccc"
               id="polyline71"
               points="43.825,45.254 43.816,45.254 42.943,45.254 42.943,47.445 41.934,47.445 41.934,45.254       41.934,47.445 42.88,47.445 43.816,47.445 43.825,47.445 43.825,45.254     " /><polyline
               style="fill:#b3b3b3"
               id="polyline73"
               points="42.943,45.254 42.88,45.254 42.691,45.254 42.691,47.445 41.934,47.445 41.934,45.254       41.934,47.445 42.943,47.445 42.943,45.254     " /><polyline
               style="fill:#999999"
               id="polyline75"
               points="42.691,45.254 42.457,45.254 42.457,47.445 41.934,47.445 41.934,45.254 41.934,47.445       42.691,47.445 42.691,45.254     " /><polyline
               style="fill:#808080"
               id="polyline77"
               points="42.457,45.254 42.322,45.254 42.322,47.445 42.177,47.445 42.177,45.254 41.934,45.254       41.934,47.445 42.457,47.445 42.457,45.254     " /><polyline
               style="fill:#cccccc"
               id="polyline79"
               points="42.322,45.254 42.177,45.254 42.177,47.445 42.322,47.445 42.322,45.254     " /><polyline
               style="fill:#cccccc"
               id="polyline81"
               points="3.226,45.254 2.353,45.254 2.353,47.445 3.298,47.445 4.234,47.445 3.226,47.445 3.226,45.254           " /><polyline
               style="fill:#b3b3b3"
               id="polyline83"
               points="3.478,45.254 3.298,45.254 3.226,45.254 3.226,47.445 4.234,47.445 3.478,47.445 3.478,45.254           " /><polyline
               style="fill:#999999"
               id="polyline85"
               points="3.72,45.254 3.478,45.254 3.478,47.445 4.234,47.445 3.72,47.445 3.72,45.254     " /><polyline
               style="fill:#808080"
               id="polyline87"
               points="4.234,45.254 3.991,45.254 3.991,47.445 3.847,47.445 3.847,45.254 3.72,45.254 3.72,47.445       4.234,47.445 4.234,45.254     " /><polyline
               style="fill:#cccccc"
               id="polyline89"
               points="3.991,45.254 3.847,45.254 3.847,47.445 3.991,47.445 3.991,45.254     " /><polyline
               style="fill:#0f0f0f"
               id="polyline91"
               points="36.67,48.984 35.419,48.984 35.419,52.904 36.67,52.904 36.67,48.984     " /><polyline
               style="fill:#252525"
               id="polyline93"
               points="33.429,52.904 33.403,52.904 33.403,53.619 33.429,53.619 33.429,52.904     " /><polyline
               style="fill:#0f0f0f"
               id="polyline95"
               points="33.429,48.984 32.178,48.984 32.178,53.619 33.403,53.619 33.403,52.904 33.429,52.904       33.429,48.984     " /><polyline
               style="fill:#0f0f0f"
               id="polyline97"
               points="30.19,48.984 28.938,48.984 28.938,53.619 30.19,53.619 30.19,48.984     " /><polyline
               style="fill:#0f0f0f"
               id="polyline99"
               points="26.95,48.984 25.699,48.984 25.699,53.619 26.95,53.619 26.95,48.984     " /><polyline
               style="fill:#0f0f0f"
               id="polyline101"
               points="23.71,48.984 22.459,48.984 22.459,53.619 23.71,53.619 23.71,48.984     " /><polyline
               style="fill:#0f0f0f"
               id="polyline103"
               points="20.469,48.984 19.219,48.984 19.219,53.619 20.469,53.619 20.469,48.984     " /><polyline
               style="fill:#0f0f0f"
               id="polyline105"
               points="17.23,48.984 15.979,48.984 15.979,53.619 17.23,53.619 17.23,48.984     " /><polyline
               style="fill:#252525"
               id="polyline107"
               points="12.766,52.904 12.739,52.904 12.739,53.619 12.766,53.619 12.766,52.904     " /><polyline
               style="fill:#0f0f0f"
               id="polyline109"
               points="13.99,48.984 12.739,48.984 12.739,52.904 12.766,52.904 12.766,53.619 13.99,53.619       13.99,48.984     " /><polyline
               style="fill:#0f0f0f"
               id="polyline111"
               points="10.75,48.984 9.499,48.984 9.499,52.904 10.75,52.904 10.75,48.984     " /><polyline
               style="fill:#0d0d0d"
               id="polyline113"
               points="36.67,39.795 35.419,39.795 35.419,48.646 36.67,48.646 36.67,39.795     " /><polyline
               style="fill:#0d0d0d"
               id="polyline115"
               points="33.429,39.795 32.178,39.795 32.178,48.646 33.429,48.646 33.429,39.795     " /><polyline
               style="fill:#0d0d0d"
               id="polyline117"
               points="30.19,39.795 28.938,39.795 28.938,48.646 30.19,48.646 30.19,39.795     " /><polyline
               style="fill:#0d0d0d"
               id="polyline119"
               points="26.95,39.795 25.699,39.795 25.699,48.646 26.95,48.646 26.95,39.795     " /><polyline
               style="fill:#0d0d0d"
               id="polyline121"
               points="23.71,39.795 22.459,39.795 22.459,48.646 23.71,48.646 23.71,39.795     " /><polyline
               style="fill:#0d0d0d"
               id="polyline123"
               points="20.469,39.795 19.219,39.795 19.219,48.646 20.469,48.646 20.469,39.795     " /><polyline
               style="fill:#0d0d0d"
               id="polyline125"
               points="17.23,39.795 15.979,39.795 15.979,48.646 17.23,48.646 17.23,39.795     " /><polyline
               style="fill:#0d0d0d"
               id="polyline127"
               points="13.99,39.795 12.739,39.795 12.739,48.646 13.99,48.646 13.99,39.795     " /><polyline
               style="fill:#0d0d0d"
               id="polyline129"
               points="10.75,39.795 9.499,39.795 9.499,48.646 10.75,48.646 10.75,39.795     " /><polyline
               style="fill:#6f4813"
               id="polyline131"
               points="35.068,39.795 34.825,39.795 34.825,47.257 34.059,47.257 34.059,39.795 33.817,39.795       33.817,47.257 35.068,47.257 35.068,39.795     " /><polyline
               style="fill:#6f4813"
               id="polyline133"
               points="31.828,39.795 31.585,39.795 31.585,47.257 30.82,47.257 30.82,39.795 30.577,39.795       30.577,47.257 31.828,47.257 31.828,39.795     " /><polyline
               style="fill:#6f4813"
               id="polyline135"
               points="28.588,39.795 28.344,39.795 28.344,47.257 27.589,47.257 27.589,39.795 27.337,39.795       27.337,47.257 28.588,47.257 28.588,39.795     " /><polyline
               style="fill:#6f4813"
               id="polyline137"
               points="25.347,39.795 25.104,39.795 25.104,47.257 24.348,47.257 24.348,39.795 24.096,39.795       24.096,47.257 25.347,47.257 25.347,39.795     " /><polyline
               style="fill:#6f4813"
               id="polyline139"
               points="22.108,39.795 21.856,39.795 21.856,47.257 21.1,47.257 21.1,39.795 20.857,39.795       20.857,47.257 22.108,47.257 22.108,39.795     " /><polyline
               style="fill:#6f4813"
               id="polyline141"
               points="18.868,39.795 18.616,39.795 18.616,47.257 17.86,47.257 17.86,39.795 17.617,39.795       17.617,47.257 18.868,47.257 18.868,39.795     " /><polyline
               style="fill:#6f4813"
               id="polyline143"
               points="15.628,39.795 15.385,39.795 15.385,47.257 14.62,47.257 14.62,39.795 14.377,39.795       14.377,47.257 15.628,47.257 15.628,39.795     " /><polyline
               style="fill:#6f4813"
               id="polyline145"
               points="12.387,39.795 12.145,39.795 12.145,47.257 11.38,47.257 11.38,39.795 11.136,39.795       11.136,47.257 12.387,47.257 12.387,39.795     " /><polyline
               style="fill:#78592e"
               id="polyline147"
               points="34.825,39.795 34.635,39.795 34.635,47.257 34.258,47.257 34.258,39.795 34.059,39.795       34.059,47.257 34.825,47.257 34.825,39.795     " /><polyline
               style="fill:#78592e"
               id="polyline149"
               points="31.585,39.795 31.395,39.795 31.395,47.257 31.017,47.257 31.017,39.795 30.82,39.795       30.82,47.257 31.585,47.257 31.585,39.795     " /><polyline
               style="fill:#78592e"
               id="polyline151"
               points="28.344,39.795 28.146,39.795 28.146,47.257 27.778,47.257 27.778,39.795 27.589,39.795       27.589,47.257 28.344,47.257 28.344,39.795     " /><polyline
               style="fill:#78592e"
               id="polyline153"
               points="25.104,39.795 24.907,39.795 24.907,47.257 24.538,47.257 24.538,39.795 24.348,39.795       24.348,47.257 25.104,47.257 25.104,39.795     " /><polyline
               style="fill:#78592e"
               id="polyline155"
               points="21.856,39.795 21.667,39.795 21.667,47.257 21.298,47.257 21.298,39.795 21.1,39.795       21.1,47.257 21.856,47.257 21.856,39.795     " /><polyline
               style="fill:#78592e"
               id="polyline157"
               points="18.616,39.795 18.427,39.795 18.427,47.257 18.058,47.257 18.058,39.795 17.86,39.795       17.86,47.257 18.616,47.257 18.616,39.795     " /><polyline
               style="fill:#78592e"
               id="polyline159"
               points="15.385,39.795 15.187,39.795 15.187,47.257 14.809,47.257 14.809,39.795 14.62,39.795       14.62,47.257 15.385,47.257 15.385,39.795     " /><polyline
               style="fill:#78592e"
               id="polyline161"
               points="12.145,39.795 11.947,39.795 11.947,47.257 11.569,47.257 11.569,39.795 11.38,39.795       11.38,47.257 12.145,47.257 12.145,39.795     " /><polyline
               style="fill:#81694a"
               id="polyline163"
               points="34.635,39.795 34.258,39.795 34.258,47.257 34.635,47.257 34.635,39.795     " /><polyline
               style="fill:#81694a"
               id="polyline165"
               points="31.395,39.795 31.017,39.795 31.017,47.257 31.395,47.257 31.395,39.795     " /><polyline
               style="fill:#81694a"
               id="polyline167"
               points="28.146,39.795 27.778,39.795 27.778,47.257 28.146,47.257 28.146,39.795     " /><polyline
               style="fill:#81694a"
               id="polyline169"
               points="24.907,39.795 24.538,39.795 24.538,47.257 24.907,47.257 24.907,39.795     " /><polyline
               style="fill:#81694a"
               id="polyline171"
               points="21.667,39.795 21.298,39.795 21.298,47.257 21.667,47.257 21.667,39.795     " /><polyline
               style="fill:#81694a"
               id="polyline173"
               points="18.427,39.795 18.058,39.795 18.058,47.257 18.427,47.257 18.427,39.795     " /><polyline
               style="fill:#81694a"
               id="polyline175"
               points="15.187,39.795 14.809,39.795 14.809,47.257 15.187,47.257 15.187,39.795     " /><polyline
               style="fill:#81694a"
               id="polyline177"
               points="11.947,39.795 11.569,39.795 11.569,47.257 11.947,47.257 11.947,39.795     " /><polyline
               style="fill:#999999"
               id="polyline179"
               points="44.968,56.607 1.192,56.607 1.192,56.832 44.968,56.832 44.968,56.607     " /><polyline
               style="fill:#999999"
               id="polyline181"
               points="44.968,50.803 44.527,50.803 44.527,56.607 44.968,56.607 44.968,50.803     " /></g></g></g><g
         id="g207"><path
           style="fill:#b3b3b3"
           inkscape:connector-curvature="0"
           id="path209"
           d="m 12.031,29.422 c 0,-0.396 0.324,-0.72 0.724,-0.72 l 2.649,0 c 0.396,0 0.724,0.324 0.724,0.72 l 0,9.448 c 0,0.396 -0.324,0.72 -0.724,0.72 l -2.649,0 c -0.396,0 -0.724,-0.324 -0.724,-0.72 l 0,-9.448 z" /><path
           style="fill:#b3b3b3"
           inkscape:connector-curvature="0"
           id="path211"
           d="m 30.038,29.422 c 0,-0.396 0.324,-0.72 0.724,-0.72 l 2.649,0 c 0.396,0 0.724,0.324 0.724,0.72 l 0,9.448 c 0,0.396 -0.324,0.72 -0.724,0.72 l -2.649,0 c -0.396,0 -0.724,-0.324 -0.724,-0.72 l 0,-9.448 z" /><path
           style="fill:#cccccc"
           inkscape:connector-curvature="0"
           id="path213"
           d="m 12.031,29.422 c 0,-0.396 0.324,-0.72 0.724,-0.72 l 2.649,0 c 0.396,0 0.724,0.324 0.724,0.72 l 0,1.167 -4.098,0 0.001,-1.167 0,0 z" /><path
           style="fill:#cccccc"
           inkscape:connector-curvature="0"
           id="path215"
           d="m 30.038,29.422 c 0,-0.396 0.324,-0.72 0.724,-0.72 l 2.649,0 c 0.396,0 0.724,0.324 0.724,0.72 l 0,1.167 -4.097,0 0,-1.167 z" /><rect
           style="fill:#999999"
           id="rect217"
           height="4.0630002"
           width="4.098"
           y="30.403"
           x="12.031" /><rect
           style="fill:#999999"
           id="rect219"
           height="4.0630002"
           width="4.0970001"
           y="30.403"
           x="30.038" /><rect
           style="fill:#b3b3b3"
           id="rect221"
           height="3.875"
           width="4.098"
           y="32.965"
           x="12.031" /><rect
           style="fill:#b3b3b3"
           id="rect223"
           height="3.875"
           width="4.0970001"
           y="32.965"
           x="30.038" /><rect
           style="fill:#cccccc"
           id="rect225"
           height="1.47"
           width="4.098"
           y="34.744999"
           x="12.031" /><rect
           style="fill:#cccccc"
           id="rect227"
           height="1.47"
           width="4.0970001"
           y="34.744999"
           x="30.038" /><rect
           style="fill:#e6e6e6"
           id="rect229"
           height="0.31099999"
           width="4.098"
           y="30.247"
           x="12.031" /><rect
           style="fill:#f2f2f2"
           id="rect231"
           height="0.49000001"
           width="4.098"
           y="29.700001"
           x="12.034" /><path
           style="fill:#cccccc"
           inkscape:connector-curvature="0"
           id="path233"
           d="m 44.973,28.323 0,-27.602 0,-0.72 -0.721,0 -42.334,0 -0.722,0 0,0.72 0,27.602 0.288,0 0,10.428 0.436,0 8.627,0 0.72,0 0.047,-0.717 0.336,-5.104 0.336,-5.104 c 0.026,-0.395 0.372,-0.718 0.771,-0.718 l 2.666,0 c 0.396,0 0.738,0.323 0.768,0.718 l 0.336,5.104 0.336,5.104 0,0 0.048,0.717 0.724,0 10.918,0 0.721,0 0.049,-0.717 0,0 0.345,-5.104 0.348,-5.105 c 0.024,-0.395 0.373,-0.717 0.768,-0.717 l 2.629,0 c 0.396,0 0.74,0.322 0.771,0.717 l 0.346,5.105 0.344,5.104 0,0 0.049,0.717 0.717,0 8.627,0 0.432,0 0,-10.429 0.274,0.001 0,0 z" /></g><rect
         style="opacity:0.37000002;fill:#e6e6e6"
         y="0"
         id="rect235"
         height="38.750999"
         width="3.4749999"
         enable-background="new    "
         x="1.196" /><rect
         style="opacity:0.37000002;fill:#808080"
         y="0"
         id="rect237"
         height="38.750999"
         width="3.471"
         enable-background="new    "
         x="41.502998" /><path
         style="opacity:0.45;fill:#e6e6e6"
         inkscape:connector-curvature="0"
         id="path239"
         d="m 14.078,38.751 -2.047,0 c 0,0 0,-8.852 0,-9.33 0,-0.478 0.433,-0.721 0.724,-0.721 0.291,0 1.323,0 1.323,0 l 0,10.051 z"
         enable-background="new    " /><path
         style="opacity:0.45;fill:#e6e6e6"
         inkscape:connector-curvature="0"
         id="path241"
         d="m 32.085,38.751 -2.043,0 c 0,0 0,-8.852 0,-9.33 0,-0.478 0.427,-0.721 0.718,-0.721 0.291,0 1.324,0 1.324,0 l 0,10.051 z"
         enable-background="new    " /><path
         style="opacity:0.45;fill:#b3b3b3"
         inkscape:connector-curvature="0"
         id="path243"
         d="m 32.089,38.751 2.047,0 c 0,0 0,-8.852 0,-9.33 0,-0.478 -0.435,-0.721 -0.726,-0.721 -0.291,0 -1.321,0 -1.321,0 l 0,10.051 z"
         enable-background="new    " /><path
         style="opacity:0.45;fill:#b3b3b3"
         inkscape:connector-curvature="0"
         id="path245"
         d="m 14.078,38.751 2.051,0 c 0,0 0,-8.852 0,-9.33 0,-0.478 -0.433,-0.721 -0.724,-0.721 -0.291,0 -1.327,0 -1.327,0 l 0,10.051 z"
         enable-background="new    " /><rect
         style="opacity:0.76000001;fill:#e6e6e6"
         id="rect247"
         height="0.81300002"
         width="4.098"
         enable-background="new    "
         y="34.965"
         x="12.031" /><rect
         style="opacity:0.76000001;fill:#e6e6e6"
         id="rect249"
         height="0.81300002"
         width="4.0970001"
         enable-background="new    "
         y="34.965"
         x="30.038" /><rect
         style="opacity:0.76000001;fill:#e6e6e6"
         id="rect251"
         height="0.31099999"
         width="4.0970001"
         enable-background="new    "
         y="30.247"
         x="30.038" /><rect
         style="opacity:0.76000001;fill:#f2f2f2"
         id="rect253"
         height="0.41100001"
         width="4.0939999"
         enable-background="new    "
         y="29.806"
         x="30.042" /><g
         id="g255"><g
           id="g257"><rect
             style="fill:#999999"
             id="rect259"
             height="1.699"
             width="0.38600001"
             y="41.612"
             x="0.011" /><rect
             style="fill:#999999"
             id="rect261"
             height="1.699"
             width="0.38600001"
             y="41.612"
             x="0.011" /></g><path
           style="fill:#999999"
           inkscape:connector-curvature="0"
           id="path263"
           d="m 1.192,48.053 c 0,0 -0.658,-2.991 -0.783,-4.741 l -0.398,0 c 0.125,1.75 0.783,4.741 0.783,4.741 0,0 0.254,1.497 0.397,1.903 10e-4,-0.969 10e-4,-1.903 10e-4,-1.903 z" /><path
           style="fill:#cccccc"
           inkscape:connector-curvature="0"
           id="path265"
           d="m 1.192,46.365 c 0,0 -0.669,-3.003 -0.794,-4.753 l -0.398,0 c 0.125,1.75 0.794,4.753 0.794,4.753 0,0 0.254,1.497 0.397,1.903 10e-4,-0.968 10e-4,-1.903 10e-4,-1.903 z" /></g><g
         id="g267"><g
           id="g269"><rect
             style="fill:#999999"
             id="rect271"
             height="1.699"
             width="0.38600001"
             y="41.612"
             x="45.771" /><rect
             style="fill:#999999"
             id="rect273"
             height="1.699"
             width="0.38600001"
             y="41.612"
             x="45.771" /></g><path
           style="fill:#999999"
           inkscape:connector-curvature="0"
           id="path275"
           d="m 44.976,48.053 c 0,0 0.658,-2.991 0.783,-4.741 l 0.397,0 c -0.125,1.75 -0.782,4.741 -0.782,4.741 0,0 -0.255,1.497 -0.398,1.903 0,-0.969 0,-1.903 0,-1.903 z" /><path
           style="fill:#cccccc"
           inkscape:connector-curvature="0"
           id="path277"
           d="m 44.976,46.365 c 0,0 0.67,-3.003 0.795,-4.753 l 0.397,0 c -0.125,1.75 -0.794,4.753 -0.794,4.753 0,0 -0.255,1.497 -0.398,1.903 0,-0.968 0,-1.903 0,-1.903 z" /></g></g></g></svg>