<?xml version="1.0" encoding="UTF-8" standalone="no"?>
<!-- Generator: Adobe Illustrator 20.0.0, SVG Export Plug-In . SVG Version: 6.00 Build 0)  -->

<svg
   xmlns:dc="http://purl.org/dc/elements/1.1/"
   xmlns:cc="http://creativecommons.org/ns#"
   xmlns:rdf="http://www.w3.org/1999/02/22-rdf-syntax-ns#"
   xmlns:svg="http://www.w3.org/2000/svg"
   xmlns="http://www.w3.org/2000/svg"
   xmlns:sodipodi="http://sodipodi.sourceforge.net/DTD/sodipodi-0.dtd"
   xmlns:inkscape="http://www.inkscape.org/namespaces/inkscape"
   version="1.2"
   id="Layer_1"
   x="0px"
   y="0px"
   width="9.4643755mm"
   height="10.027492mm"
   viewBox="0 0 33.535193 35.530482"
   xml:space="preserve"
   inkscape:version="0.91 r13725"
   sodipodi:docname="usb-minib-ciseco.svg"><metadata
     id="metadata35"><rdf:RDF><cc:Work
         rdf:about=""><dc:format>image/svg+xml</dc:format><dc:type
           rdf:resource="http://purl.org/dc/dcmitype/StillImage" /><dc:title></dc:title></cc:Work></rdf:RDF></metadata><defs
     id="defs33" /><sodipodi:namedview
     pagecolor="#ffffff"
     bordercolor="#666666"
     borderopacity="1"
     objecttolerance="10"
     gridtolerance="10"
     guidetolerance="10"
     inkscape:pageopacity="0"
     inkscape:pageshadow="2"
     inkscape:window-width="1536"
     inkscape:window-height="792"
     id="namedview31"
     showgrid="false"
     inkscape:zoom="11.175301"
     inkscape:cx="-8.6370245"
     inkscape:cy="19.607608"
     inkscape:window-x="120"
     inkscape:window-y="20"
     inkscape:window-maximized="0"
     inkscape:current-layer="Layer_1"
     inkscape:document-units="mm"
     units="mm"
     fit-margin-top="0"
     fit-margin-left="0"
     fit-margin-right="0"
     fit-margin-bottom="0" /><g
     id="g4166"
     transform="matrix(0,1,-1,0,33.535196,-1.6685793e-6)"><rect
       style="fill:#cccccc"
       width="6.2392349"
       id="rect5566"
       y="20.858435"
       height="8.2996416"
       x="29.291252" /><rect
       style="fill:#cccccc"
       width="6.2392349"
       id="rect5568"
       y="1.304636"
       height="8.2996416"
       x="29.291252" /><rect
       style="fill:#cccccc"
       width="6.2392349"
       id="rect5570"
       y="20.776106"
       height="8.2996416"
       x="-2.3876953e-007" /><rect
       style="fill:#f2f2f2"
       width="6.2392349"
       id="rect5572"
       y="28.983997"
       height="0.17411876"
       x="29.291252" /><rect
       style="fill:#f2f2f2"
       width="6.2392349"
       id="rect5574"
       y="28.901499"
       height="0.17411876"
       x="-2.3876953e-007" /><rect
       width="6.2392349"
       enable-background="new    "
       id="rect5576"
       y="20.858435"
       style="opacity:0.2"
       height="0.21938908"
       x="29.291252" /><rect
       width="6.2392349"
       enable-background="new    "
       id="rect5578"
       y="20.776106"
       style="opacity:0.2"
       height="0.21938908"
       x="-2.3876953e-007" /><rect
       style="fill:#cccccc"
       width="6.2392349"
       id="rect5580"
       y="1.2762012"
       height="8.2996416"
       x="-2.3876953e-007" /><rect
       style="fill:#f2f2f2"
       width="6.2392349"
       id="rect5582"
       y="9.3813534"
       height="0.2228719"
       x="29.291252" /><rect
       style="fill:#f2f2f2"
       width="6.2392349"
       id="rect5584"
       y="9.3529186"
       height="0.2228719"
       x="-2.3876953e-007" /><rect
       x="11.610188"
       height="3.4614763"
       y="0.0012625392"
       id="rect5588"
       width="1.4533111"
       style="fill:#b3b3b3" /><rect
       x="11.610188"
       height="3.2641418"
       y="3.3087281e-006"
       id="rect5590"
       width="0.13117002"
       style="fill:#999999" /><g
       transform="matrix(1.8137346,0,0,1.8137346,27.004533,167.84717)"
       id="g5592"><rect
         style="fill:#b3b3b3"
         width="0.802562"
         id="rect5594"
         y="-92.541603"
         height="1.90848"
         x="-6.9951701" /><rect
         style="fill:#999999"
         width="0.0735998"
         id="rect5596"
         y="-92.542297"
         height="1.79968"
         x="-6.9951701" /></g><g
       transform="matrix(1.8137346,0,0,1.8137346,27.004533,167.84717)"
       id="g5598"><rect
         style="fill:#b3b3b3"
         width="0.802562"
         id="rect5600"
         y="-92.541603"
         height="1.90848"
         x="-5.50528" /><rect
         style="fill:#999999"
         width="0.072320402"
         id="rect5602"
         y="-92.542297"
         height="1.79968"
         x="-5.50528" /></g><g
       transform="matrix(1.8137346,0,0,1.8137346,27.004533,167.84717)"
       id="g5604"><rect
         style="fill:#b3b3b3"
         width="0.802562"
         id="rect5606"
         y="-92.541603"
         height="1.90848"
         x="-4.0128002" /><rect
         style="fill:#999999"
         width="0.071039803"
         id="rect5608"
         y="-92.542297"
         height="1.79968"
         x="-4.0128002" /></g><g
       transform="matrix(1.8137346,0,0,1.8137346,27.004533,167.84717)"
       id="g5610"><rect
         style="fill:#b3b3b3"
         width="0.80128098"
         id="rect5612"
         y="-92.541603"
         height="1.90848"
         x="-2.5216" /><rect
         style="fill:#999999"
         width="0.072320402"
         id="rect5614"
         y="-92.542297"
         height="1.79968"
         x="-2.5216" /></g><g
       transform="matrix(1.8737033,0,0,1.8737033,27.310626,173.29435)"
       id="g5616"><polygon
         style="fill:#b3b3b3"
         points="-11.8829,-90.8359 1.69984,-90.8359 1.69984,-74.5898 -11.8829,-74.5898 "
         id="polygon5618" /><rect
         style="fill:#cccccc"
         width="13.5827"
         id="rect5620"
         y="-90.835899"
         height="0.093440197"
         x="-11.8829" /><rect
         style="fill:#333333"
         width="11.4803"
         id="rect5622"
         y="-90.835899"
         height="15.2416"
         x="-10.8429" /><path
         style="fill:#cccccc"
         inkscape:connector-curvature="0"
         id="path5624"
         d="m -12.0493,-90.4298 0.16512,-0.40896 1.82656,0 c 0,0 -1.66016,0.08 -1.71904,0.20224 -0.05888,0.12224 0.07872,0.2048 0.07872,0.2048 l -0.35136,0 0,0.0016 z" /><path
         style="fill:#cccccc"
         inkscape:connector-curvature="0"
         id="path5626"
         d="m 1.8432,-90.4298 -0.16512,-0.40768 -1.82656,0 c 0,0 1.65888,0.08128 1.71776,0.2016 0.06144,0.1216 -0.07616,0.20288 -0.07616,0.20288 l 0.35008,0.0032 0,0 z" /><path
         style="fill:#e6e6e6"
         inkscape:connector-curvature="0"
         id="path5628"
         d="m 1.8432,-74.5906 0,-16.2464 -3.9328,0 0,0.40768 -6.02749,0 0,-0.40768 -3.93152,0 0,16.2464 13.8918,0 z m -2.32384,-7.96219 c 0,-0.08896 0.0697599,-0.16 0.16,-0.16 l 0.46656,0 c 0.0889603,0 0.16,0.07104 0.16,0.16 l 0,4.256 c 0,0.08896 -0.0710398,0.16 -0.16,0.16 l -0.46656,0 c -0.0902398,0 -0.16,-0.07104 -0.16,-0.16 l 0,-4.256 z m -2.65344,6.32771 -0.11264,0 c -0.0896,0 -0.16384,-0.07104 -0.17152,-0.16 l -0.36032,-6.34625 c -0.00512,-0.08832 -0.08128,-0.16 -0.17024,-0.16 l -2.34816,0 c -0.08832,0 -0.16448,0.07104 -0.1696,0.16 l -0.36096,6.34625 c -0.0064,0.08896 -0.08128,0.16 -0.17152,0.16 l -0.11136,0 c -0.08896,0 -0.15616,-0.07104 -0.15104,-0.16 l 0.46016,-8.02627 c 0.00512,-0.08832 0.08128,-0.16 0.17024,-0.16 l 3.01888,0 c 0.08896,0 0.16512,0.07104 0.17152,0.16 l 0.45888,8.02627 c 0.00384,0.08832 -0.06464,0.16 -0.15232,0.16 z m 2.40896,-0.666242 -0.55104,0.55296 c -0.064,0.06208 -0.18496,0.11328 -0.2752,0.11328 l -0.38528,0 c -0.08768,0 -0.16,-0.07104 -0.16,-0.16 l 0,-6.16833 c 0,-0.08832 0.07232,-0.16 0.16,-0.16 l 0.38528,0 c 0.09024,0 0.16,0.07168 0.16,0.16 l 0,4.60928 c 0,0.08832 0.0512,0.2112 0.1152,0.27328 l 0.55104,0.55296 c 0.0620801,0.06272 0.0620801,0.16448 0,0.22656 z m -8.91778,-11.6 c 0,-0.08832 0.07104,-0.16 0.16,-0.16 l 8.42882,0 c 0.0876802,0 0.16,0.07168 0.16,0.16 l 0,0.53376 c 0,0.08896 -0.0723197,0.16 -0.16,0.16 l -8.42882,0 c -0.08896,0 -0.16,-0.07104 -0.16,-0.16 l 0,-0.53376 z m -0.01408,11.3741 0.55232,-0.55296 c 0.064,-0.06272 0.11392,-0.18496 0.11392,-0.27328 l 0,-4.60928 c 0,-0.08896 0.07104,-0.16 0.16,-0.16 l 0.38656,0 c 0.08768,0 0.16,0.07104 0.16,0.16 l 0,6.16896 c 0,0.08896 -0.07232,0.16 -0.16,0.16 l -0.38656,0 c -0.08896,0 -0.20992,-0.0512 -0.27392,-0.11392 l -0.55232,-0.55232 c -0.06208,-0.06336 -0.06208,-0.16512 0,-0.2272 z m -1.03104,-5.43552 c 0,-0.08896 0.06976,-0.16 0.16,-0.16 l 0.46656,0 c 0.08896,0 0.16,0.07104 0.16,0.16 l 0,4.256 c 0,0.08896 -0.07104,0.16 -0.16,0.16 l -0.46656,0 c -0.09024,0 -0.16,-0.07104 -0.16,-0.16 l 0,-4.256 0,0 z" /><polygon
         style="fill:#f2f2f2"
         points="-12.0493,-90.8453 -10.9453,-90.8453 -11.7568,-74.5898 -12.0493,-74.5898 "
         id="polygon5630" /><polygon
         style="fill:#f2f2f2"
         points="1.02464,-90.8453 1.8432,-90.8453 1.8432,-74.5898 1.4336,-86.4914 "
         id="polygon5632" /><polyline
         style="fill:#f2f2f2"
         points="1.84192,-74.8152,1.84192,-74.5898,-12.0468,-74.5898,-12.0468,-74.8152"
         id="polyline5634" /></g></g></svg>