<?xml version="1.0" encoding="UTF-8" standalone="no"?>
<!-- Generator: Adobe Illustrator 16.0.0, SVG Export Plug-In . SVG Version: 6.00 Build 0)  -->

<svg
   xmlns:dc="http://purl.org/dc/elements/1.1/"
   xmlns:cc="http://creativecommons.org/ns#"
   xmlns:rdf="http://www.w3.org/1999/02/22-rdf-syntax-ns#"
   xmlns:svg="http://www.w3.org/2000/svg"
   xmlns="http://www.w3.org/2000/svg"
   xmlns:sodipodi="http://sodipodi.sourceforge.net/DTD/sodipodi-0.dtd"
   xmlns:inkscape="http://www.inkscape.org/namespaces/inkscape"
   version="1.1"
   id="Ebene_1"
   x="0px"
   y="0px"
   width="18.961"
   height="35.826"
   viewBox="0 0 18.961 35.825999"
   enable-background="new 0 0 100.914 79.403"
   xml:space="preserve"
   inkscape:version="0.91 r13725"
   sodipodi:docname="sma-edge.svg"><metadata
     id="metadata1157"><rdf:RDF><cc:Work
         rdf:about=""><dc:format>image/svg+xml</dc:format><dc:type
           rdf:resource="http://purl.org/dc/dcmitype/StillImage" /><dc:title></dc:title></cc:Work></rdf:RDF></metadata><defs
     id="defs1155" /><sodipodi:namedview
     pagecolor="#ffffff"
     bordercolor="#666666"
     borderopacity="1"
     objecttolerance="10"
     gridtolerance="10"
     guidetolerance="10"
     inkscape:pageopacity="0"
     inkscape:pageshadow="2"
     inkscape:window-width="1536"
     inkscape:window-height="801"
     id="namedview1153"
     showgrid="false"
     fit-margin-top="0"
     fit-margin-left="0"
     fit-margin-right="0"
     fit-margin-bottom="0"
     inkscape:zoom="2.8539152"
     inkscape:cx="28.534261"
     inkscape:cy="1.7700013"
     inkscape:window-x="-8"
     inkscape:window-y="-8"
     inkscape:window-maximized="1"
     inkscape:current-layer="Ebene_1" /><g
     id="g5447"
     transform="matrix(0,1,-1,0,18.961,-6.2997437e-7)"><g
       transform="translate(0,-14.078)"
       id="Ebene_1_1_"><g
         id="g529"><g
           id="g531"><rect
             x="3.237"
             y="17.153"
             width="10.632"
             height="12.362"
             id="rect533"
             style="fill:#f3cc7d" /><rect
             x="3.237"
             y="28.256001"
             width="10.632"
             height="0.38"
             id="rect535"
             style="fill:#9a7c47" /><rect
             x="3.237"
             y="20.375"
             width="10.632"
             height="4.467"
             id="rect537"
             style="fill:#9b6a25" /><rect
             x="3.237"
             y="24.893999"
             enable-background="new    "
             width="10.632"
             height="0.86400002"
             id="rect539"
             style="opacity:0.5;fill:#f2e0c0" /><rect
             x="3.237"
             y="20.375"
             width="10.632"
             height="1.788"
             id="rect541"
             style="fill:#533a14" /><rect
             x="3.237"
             y="22.163"
             width="10.632"
             height="1.788"
             id="rect543"
             style="fill:#80581e" /></g><g
           id="g545"><rect
             y="16.891001"
             width="3.237"
             height="12.887"
             id="rect547"
             x="0"
             style="fill:#f3cc7d" /><rect
             y="28.466999"
             width="3.237"
             height="0.39500001"
             id="rect549"
             x="0"
             style="fill:#9a7c47" /><rect
             y="20.249001"
             width="3.237"
             height="4.6570001"
             id="rect551"
             x="0"
             style="fill:#9b6a25" /><rect
             y="24.959999"
             enable-background="new    "
             width="3.237"
             height="0.90100002"
             id="rect553"
             x="0"
             style="opacity:0.5;fill:#f2e0c0" /><rect
             y="20.249001"
             width="3.237"
             height="1.863"
             id="rect555"
             x="0"
             style="fill:#533a14" /><rect
             y="22.113001"
             width="3.237"
             height="1.864"
             id="rect557"
             x="0"
             style="fill:#80581e" /></g><g
           id="g559"><rect
             x="13.873"
             y="16.891001"
             width="2.4679999"
             height="12.887"
             id="rect561"
             style="fill:#f3cc7d" /><rect
             x="13.873"
             y="28.466999"
             width="2.4679999"
             height="0.39500001"
             id="rect563"
             style="fill:#9a7c47" /><rect
             x="13.873"
             y="20.249001"
             width="2.4679999"
             height="4.6570001"
             id="rect565"
             style="fill:#9b6a25" /><rect
             x="13.873"
             y="24.959999"
             enable-background="new    "
             width="2.4679999"
             height="0.90100002"
             id="rect567"
             style="opacity:0.5;fill:#f2e0c0" /><rect
             x="13.873"
             y="20.249001"
             width="2.4679999"
             height="1.863"
             id="rect569"
             style="fill:#533a14" /><rect
             x="13.873"
             y="22.113001"
             width="2.4679999"
             height="1.864"
             id="rect571"
             style="fill:#80581e" /></g><rect
           x="15.817"
           y="16.875999"
           enable-background="new    "
           width="0.523"
           height="12.9"
           id="rect573"
           style="opacity:0.2;fill:#9b6a25" /><rect
           y="16.875999"
           enable-background="new    "
           width="0.52499998"
           height="12.9"
           id="rect575"
           x="0"
           style="opacity:0.5;fill:#f2e0c0" /><rect
           x="13.532"
           y="17.15"
           enable-background="new    "
           width="0.36700001"
           height="12.364"
           id="rect577"
           style="opacity:0.2;fill:#9b6a25" /><rect
           x="3.237"
           y="17.15"
           enable-background="new    "
           width="0.36700001"
           height="12.364"
           id="rect579"
           style="opacity:0.2;fill:#9b6a25" /><g
           id="g581"><polygon
             points="13.628,29 13.671,29.899 14.129,30.482 14.583,29.899 14.54,29 "
             id="polygon583"
             style="fill:#9a7c47" /><polygon
             points="14.083,19.499 13.95,16.757 13.469,16.172 13.038,16.757 13.171,19.499 "
             id="polygon585"
             style="fill:#9a7c47" /><polygon
             points="13.362,23.474 13.568,27.759 14.48,27.759 14.275,23.474 "
             id="polygon587"
             style="fill:#9a7c47" /><polygon
             points="13.362,23.474 14.275,23.474 14.235,22.656 13.323,22.656 "
             id="polygon589"
             style="fill:#9a7c47" /><polygon
             enable-background="new    "
             points="13.362,23.474 14.275,23.474 14.235,22.656 13.323,22.656 "
             id="polygon591"
             style="opacity:0.5;fill:#f2e0c0" /><polygon
             points="13.171,19.499 13.237,20.887 14.15,20.887 14.083,19.499 "
             id="polygon593"
             style="fill:#80581e" /><polygon
             points="14.235,22.656 14.15,20.887 13.237,20.887 13.323,22.656 "
             id="polygon595"
             style="fill:#80581e" /><polygon
             points="14.48,27.759 13.568,27.759 13.628,29 14.54,29 "
             id="polygon597"
             style="fill:#9a7c47" /><polygon
             enable-background="new    "
             points="14.48,27.759 13.568,27.759 13.628,29 14.54,29 "
             id="polygon599"
             style="opacity:0.5;fill:#846330" /></g><g
           id="g601"><polygon
             points="12.083,29 12.126,29.899 12.582,30.482 13.038,29.899 12.997,29 "
             id="polygon603"
             style="fill:#9a7c47" /><polygon
             points="12.538,19.499 12.407,16.757 11.922,16.172 11.493,16.757 11.626,19.499 "
             id="polygon605"
             style="fill:#9a7c47" /><polygon
             points="11.816,23.474 12.023,27.759 12.936,27.759 12.73,23.474 "
             id="polygon607"
             style="fill:#9a7c47" /><polygon
             points="11.816,23.474 12.73,23.474 12.69,22.656 11.776,22.656 "
             id="polygon609"
             style="fill:#9a7c47" /><polygon
             enable-background="new    "
             points="11.816,23.474 12.73,23.474 12.69,22.656 11.776,22.656 "
             id="polygon611"
             style="opacity:0.5;fill:#f2e0c0" /><polygon
             points="11.626,19.499 11.692,20.887 12.605,20.887 12.538,19.499 "
             id="polygon613"
             style="fill:#80581e" /><polygon
             points="12.69,22.656 12.605,20.887 11.692,20.887 11.776,22.656 "
             id="polygon615"
             style="fill:#80581e" /><polygon
             points="12.936,27.759 12.023,27.759 12.083,29 12.997,29 "
             id="polygon617"
             style="fill:#9a7c47" /><polygon
             enable-background="new    "
             points="12.936,27.759 12.023,27.759 12.083,29 12.997,29 "
             id="polygon619"
             style="opacity:0.5;fill:#846330" /></g><g
           id="g621"><polygon
             points="10.538,29 10.581,29.899 11.037,30.482 11.495,29.899 11.452,29 "
             id="polygon623"
             style="fill:#9a7c47" /><polygon
             points="10.993,19.499 10.86,16.757 10.377,16.172 9.948,16.757 10.081,19.499 "
             id="polygon625"
             style="fill:#9a7c47" /><polygon
             points="10.271,23.474 10.478,27.759 11.391,27.759 11.185,23.474 "
             id="polygon627"
             style="fill:#9a7c47" /><polygon
             points="10.271,23.474 11.185,23.474 11.145,22.656 10.232,22.656 "
             id="polygon629"
             style="fill:#9a7c47" /><polygon
             enable-background="new    "
             points="10.271,23.474 11.185,23.474 11.145,22.656 10.232,22.656 "
             id="polygon631"
             style="opacity:0.5;fill:#f2e0c0" /><polygon
             points="10.081,19.499 10.148,20.887 11.06,20.887 10.993,19.499 "
             id="polygon633"
             style="fill:#80581e" /><polygon
             points="11.145,22.656 11.06,20.887 10.148,20.887 10.232,22.656 "
             id="polygon635"
             style="fill:#80581e" /><polygon
             points="11.391,27.759 10.478,27.759 10.538,29 11.452,29 "
             id="polygon637"
             style="fill:#9a7c47" /><polygon
             enable-background="new    "
             points="11.391,27.759 10.478,27.759 10.538,29 11.452,29 "
             id="polygon639"
             style="opacity:0.5;fill:#846330" /></g><g
           id="g641"><polygon
             points="8.993,29 9.036,29.899 9.492,30.482 9.948,29.899 9.906,29 "
             id="polygon643"
             style="fill:#9a7c47" /><polygon
             points="9.449,19.499 9.316,16.757 8.832,16.172 8.403,16.757 8.536,19.499 "
             id="polygon645"
             style="fill:#9a7c47" /><polygon
             points="8.726,23.474 8.934,27.759 9.847,27.759 9.64,23.474 "
             id="polygon647"
             style="fill:#9a7c47" /><polygon
             points="8.726,23.474 9.64,23.474 9.601,22.656 8.687,22.656 "
             id="polygon649"
             style="fill:#9a7c47" /><polygon
             enable-background="new    "
             points="8.726,23.474 9.64,23.474 9.601,22.656 8.687,22.656 "
             id="polygon651"
             style="opacity:0.5;fill:#f2e0c0" /><polygon
             points="8.536,19.499 8.603,20.887 9.516,20.887 9.449,19.499 "
             id="polygon653"
             style="fill:#80581e" /><polygon
             points="9.601,22.656 9.516,20.887 8.603,20.887 8.687,22.656 "
             id="polygon655"
             style="fill:#80581e" /><polygon
             points="9.847,27.759 8.934,27.759 8.993,29 9.906,29 "
             id="polygon657"
             style="fill:#9a7c47" /><polygon
             enable-background="new    "
             points="9.847,27.759 8.934,27.759 8.993,29 9.906,29 "
             id="polygon659"
             style="opacity:0.5;fill:#846330" /></g><g
           id="g661"><polygon
             points="7.448,29 7.491,29.899 7.949,30.482 8.403,29.899 8.361,29 "
             id="polygon663"
             style="fill:#9a7c47" /><polygon
             points="7.904,19.499 7.771,16.757 7.289,16.172 6.859,16.757 6.991,19.499 "
             id="polygon665"
             style="fill:#9a7c47" /><polygon
             points="7.183,23.474 7.389,27.759 8.301,27.759 8.095,23.474 "
             id="polygon667"
             style="fill:#9a7c47" /><polygon
             points="7.183,23.474 8.095,23.474 8.056,22.656 7.143,22.656 "
             id="polygon669"
             style="fill:#9a7c47" /><polygon
             enable-background="new    "
             points="7.183,23.474 8.095,23.474 8.056,22.656 7.143,22.656 "
             id="polygon671"
             style="opacity:0.5;fill:#f2e0c0" /><polygon
             points="6.991,19.499 7.058,20.887 7.97,20.887 7.904,19.499 "
             id="polygon673"
             style="fill:#80581e" /><polygon
             points="8.056,22.656 7.97,20.887 7.058,20.887 7.143,22.656 "
             id="polygon675"
             style="fill:#80581e" /><polygon
             points="8.301,27.759 7.389,27.759 7.448,29 8.361,29 "
             id="polygon677"
             style="fill:#9a7c47" /><polygon
             enable-background="new    "
             points="8.301,27.759 7.389,27.759 7.448,29 8.361,29 "
             id="polygon679"
             style="opacity:0.5;fill:#846330" /></g><g
           id="g681"><polygon
             points="5.903,29 5.946,29.899 6.404,30.482 6.859,29.899 6.816,29 "
             id="polygon683"
             style="fill:#9a7c47" /><polygon
             points="6.358,19.499 6.228,16.757 5.742,16.172 5.314,16.757 5.446,19.499 "
             id="polygon685"
             style="fill:#9a7c47" /><polygon
             points="5.638,23.474 5.844,27.759 6.756,27.759 6.55,23.474 "
             id="polygon687"
             style="fill:#9a7c47" /><polygon
             points="5.638,23.474 6.55,23.474 6.511,22.656 5.597,22.656 "
             id="polygon689"
             style="fill:#9a7c47" /><polygon
             enable-background="new    "
             points="5.638,23.474 6.55,23.474 6.511,22.656 5.597,22.656 "
             id="polygon691"
             style="opacity:0.5;fill:#f2e0c0" /><polygon
             points="5.446,19.499 5.513,20.887 6.425,20.887 6.358,19.499 "
             id="polygon693"
             style="fill:#80581e" /><polygon
             points="6.511,22.656 6.425,20.887 5.513,20.887 5.597,22.656 "
             id="polygon695"
             style="fill:#80581e" /><polygon
             points="6.756,27.759 5.844,27.759 5.903,29 6.816,29 "
             id="polygon697"
             style="fill:#9a7c47" /><polygon
             enable-background="new    "
             points="6.756,27.759 5.844,27.759 5.903,29 6.816,29 "
             id="polygon699"
             style="opacity:0.5;fill:#846330" /></g><g
           id="g701"><polygon
             points="4.359,29 4.401,29.899 4.858,30.482 5.316,29.899 5.273,29 "
             id="polygon703"
             style="fill:#9a7c47" /><polygon
             points="4.813,19.499 4.681,16.757 4.197,16.172 3.769,16.757 3.901,19.499 "
             id="polygon705"
             style="fill:#9a7c47" /><polygon
             points="4.091,23.474 4.299,27.759 5.211,27.759 5.005,23.474 "
             id="polygon707"
             style="fill:#9a7c47" /><polygon
             points="4.091,23.474 5.005,23.474 4.966,22.656 4.052,22.656 "
             id="polygon709"
             style="fill:#9a7c47" /><polygon
             enable-background="new    "
             points="4.091,23.474 5.005,23.474 4.966,22.656 4.052,22.656 "
             id="polygon711"
             style="opacity:0.5;fill:#f2e0c0" /><polygon
             points="3.901,19.499 3.968,20.887 4.88,20.887 4.813,19.499 "
             id="polygon713"
             style="fill:#80581e" /><polygon
             points="4.966,22.656 4.88,20.887 3.968,20.887 4.052,22.656 "
             id="polygon715"
             style="fill:#80581e" /><polygon
             points="5.211,27.759 4.299,27.759 4.359,29 5.273,29 "
             id="polygon717"
             style="fill:#9a7c47" /><polygon
             enable-background="new    "
             points="5.211,27.759 4.299,27.759 4.359,29 5.273,29 "
             id="polygon719"
             style="opacity:0.5;fill:#846330" /></g><g
           id="g721"><polygon
             points="2.814,29 2.857,29.899 3.313,30.482 3.771,29.899 3.726,29 "
             id="polygon723"
             style="fill:#9a7c47" /><polygon
             points="3.268,19.499 3.136,16.757 2.653,16.172 2.224,16.757 2.356,19.499 "
             id="polygon725"
             style="fill:#9a7c47" /><polygon
             points="2.546,23.474 2.754,27.759 3.668,27.759 3.46,23.474 "
             id="polygon727"
             style="fill:#9a7c47" /><polygon
             points="2.546,23.474 3.46,23.474 3.421,22.656 2.507,22.656 "
             id="polygon729"
             style="fill:#9a7c47" /><polygon
             enable-background="new    "
             points="2.546,23.474 3.46,23.474 3.421,22.656 2.507,22.656 "
             id="polygon731"
             style="opacity:0.5;fill:#f2e0c0" /><polygon
             points="2.356,19.499 2.423,20.887 3.337,20.887 3.268,19.499 "
             id="polygon733"
             style="fill:#80581e" /><polygon
             points="3.421,22.656 3.337,20.887 2.423,20.887 2.507,22.656 "
             id="polygon735"
             style="fill:#80581e" /><polygon
             points="3.668,27.759 2.754,27.759 2.814,29 3.726,29 "
             id="polygon737"
             style="fill:#9a7c47" /><polygon
             enable-background="new    "
             points="3.668,27.759 2.754,27.759 2.814,29 3.726,29 "
             id="polygon739"
             style="opacity:0.5;fill:#846330" /></g></g><g
         id="g741"><rect
           x="19.065001"
           y="15.594"
           width="1.979"
           height="15.758"
           id="rect743"
           style="fill:#f3cc7d" /><rect
           x="19.065001"
           y="29.747999"
           width="1.979"
           height="0.48199999"
           id="rect745"
           style="fill:#9a7c47" /><rect
           x="19.065001"
           y="19.702"
           width="1.979"
           height="5.6950002"
           id="rect747"
           style="fill:#9b6a25" /><rect
           x="19.065001"
           y="25.462"
           enable-background="new    "
           width="1.979"
           height="1.104"
           id="rect749"
           style="opacity:0.5;fill:#f2e0c0" /><rect
           x="19.065001"
           y="19.702"
           width="1.979"
           height="2.279"
           id="rect751"
           style="fill:#533a14" /><rect
           x="19.065001"
           y="21.981001"
           width="1.979"
           height="2.279"
           id="rect753"
           style="fill:#80581e" /></g><rect
         x="19.063999"
         y="15.59"
         enable-background="new    "
         width="0.37200001"
         height="15.769"
         id="rect755"
         style="opacity:0.2;fill:#897e6e" /><rect
         x="20.858999"
         y="15.59"
         enable-background="new    "
         width="0.37200001"
         height="15.769"
         id="rect757"
         style="opacity:0.2;fill:#897e6e" /><g
         id="g759"><g
           id="g761"><polygon
             points="16.526,33.039 19.014,33.039 19.251,31.627 19.251,15.492 19.014,14.078 16.526,14.078 16.342,15.196 16.342,31.964 "
             id="polygon763"
             style="fill:#533a14" /><path
             d="m 16.524,18.863 c -0.113,1.213 -0.183,2.871 -0.183,4.699 0,1.828 0.07,3.482 0.183,4.694 l 2.416,0 c 0.195,-1.212 0.312,-2.868 0.312,-4.694 0,-1.829 -0.12,-3.486 -0.312,-4.699 l -2.416,0 z"
             id="path765"
             inkscape:connector-curvature="0"
             style="fill:#9b6a25" /><path
             d="m 18.832,28.256 -2.308,0 c -0.108,0.611 -0.175,1.459 -0.175,2.396 0,0.934 0.067,1.775 0.173,2.386 l 2.292,0 0.038,0 c 0.221,-0.058 0.399,-1.1 0.399,-2.386 0,-1.323 -0.187,-2.396 -0.419,-2.396 z"
             id="path767"
             inkscape:connector-curvature="0"
             style="fill:#f3cc7d" /><path
             d="m 18.832,18.863 -2.308,0 c -0.108,-0.61 -0.175,-1.458 -0.175,-2.396 0,-0.936 0.067,-1.775 0.173,-2.387 l 2.292,0 0.038,0 c 0.221,0.058 0.399,1.1 0.399,2.387 0,1.323 -0.187,2.396 -0.419,2.396 z"
             id="path769"
             inkscape:connector-curvature="0"
             style="fill:#f2d49e" /></g><path
           d="m 19.05,19.702 c -0.033,-0.293 -0.069,-0.581 -0.11,-0.839 l -2.416,0 c -0.021,0.258 -0.044,0.543 -0.065,0.839 l 2.591,0 z"
           id="path771"
           inkscape:connector-curvature="0"
           style="fill:#80581e" /></g><g
         id="g773"><g
           id="g775"><polygon
             points="21.203,33.039 23.692,33.039 23.928,31.627 23.928,15.492 23.692,14.078 21.203,14.078 21.02,15.196 21.02,31.964 "
             id="polygon777"
             style="fill:#533a14" /><path
             d="m 21.202,18.863 c -0.113,1.213 -0.184,2.871 -0.184,4.699 0,1.828 0.07,3.482 0.184,4.694 l 2.416,0 c 0.192,-1.212 0.312,-2.868 0.312,-4.694 0,-1.829 -0.12,-3.486 -0.312,-4.699 l -2.416,0 z"
             id="path779"
             inkscape:connector-curvature="0"
             style="fill:#9b6a25" /><path
             d="m 23.51,28.256 -2.308,0 c -0.108,0.611 -0.175,1.459 -0.175,2.396 0,0.934 0.067,1.775 0.173,2.386 l 2.292,0 0.038,0 c 0.221,-0.058 0.397,-1.1 0.397,-2.386 0.001,-1.323 -0.188,-2.396 -0.417,-2.396 z"
             id="path781"
             inkscape:connector-curvature="0"
             style="fill:#f3cc7d" /><path
             d="m 23.51,18.863 -2.308,0 c -0.108,-0.61 -0.175,-1.458 -0.175,-2.396 0,-0.936 0.067,-1.775 0.173,-2.387 l 2.292,0 0.038,0 c 0.221,0.058 0.397,1.1 0.397,2.387 0.001,1.323 -0.188,2.396 -0.417,2.396 z"
             id="path783"
             inkscape:connector-curvature="0"
             style="fill:#f2d49e" /></g><path
           d="m 23.727,19.702 c -0.032,-0.293 -0.068,-0.581 -0.109,-0.839 l -2.416,0 c -0.024,0.258 -0.044,0.543 -0.065,0.839 l 2.59,0 z"
           id="path785"
           inkscape:connector-curvature="0"
           style="fill:#80581e" /></g><g
         id="g787"><g
           id="g789"><polygon
             points="24.113,29.664 28.102,29.664 28.337,28.754 28.337,18.364 28.102,17.452 24.113,17.452 23.93,18.173 23.93,28.971 "
             id="polygon791"
             style="fill:#533a14" /><path
             d="m 24.111,20.535 c -0.113,0.78 -0.184,1.849 -0.184,3.024 0,1.177 0.07,2.243 0.184,3.024 l 3.916,0 c 0.19,-0.781 0.309,-1.849 0.309,-3.024 0,-1.177 -0.119,-2.245 -0.309,-3.024 l -3.916,0 z"
             id="path793"
             inkscape:connector-curvature="0"
             style="fill:#9b6a25" /><path
             d="m 27.92,26.584 -3.806,0 c -0.109,0.394 -0.176,0.939 -0.176,1.543 0,0.601 0.067,1.145 0.173,1.537 l 3.79,0 0.038,0 c 0.221,-0.037 0.399,-0.708 0.399,-1.537 -0.001,-0.853 -0.188,-1.543 -0.418,-1.543 z"
             id="path795"
             inkscape:connector-curvature="0"
             style="fill:#f3cc7d" /><path
             d="m 27.92,20.535 -3.806,0 c -0.109,-0.395 -0.176,-0.938 -0.176,-1.546 0,-0.602 0.067,-1.145 0.173,-1.536 l 3.79,0 0.038,0 c 0.221,0.036 0.399,0.709 0.399,1.536 -0.001,0.853 -0.188,1.546 -0.418,1.546 z"
             id="path797"
             inkscape:connector-curvature="0"
             style="fill:#f2d49e" /></g><path
           d="m 28.137,21.073 c -0.034,-0.188 -0.068,-0.375 -0.11,-0.538 l -3.916,0 c -0.024,0.165 -0.044,0.35 -0.065,0.538 l 4.091,0 z"
           id="path799"
           inkscape:connector-curvature="0"
           style="fill:#80581e" /></g></g><rect
       x="28.337999"
       y="13.346"
       width="7.4879999"
       height="0.33500001"
       id="rect801"
       style="fill:#999999" /><rect
       x="28.337999"
       y="10.881999"
       width="7.4879999"
       height="2.5120001"
       id="rect803"
       style="fill:#cccccc" /><rect
       x="28.337999"
       y="7.7909999"
       width="7.4879999"
       height="0.33500001"
       id="rect805"
       style="fill:#999999" /><rect
       x="28.337999"
       y="5.3270006"
       width="7.4879999"
       height="2.5120001"
       id="rect807"
       style="fill:#cccccc" /></g></svg>